solid CATIA STL
  facet normal  0.000000e+000  1.000000e+000  0.000000e+000
    outer loop
      vertex -1.557647e+000  8.200000e+000  1.682450e+001
      vertex  1.557647e+000  8.200000e+000  1.682450e+001
      vertex -4.364429e+000  8.200000e+000  1.547282e+001
    endloop
  endfacet
  facet normal  0.000000e+000  9.999999e-001  0.000000e+000
    outer loop
      vertex -4.364429e+000  8.200000e+000  1.547282e+001
      vertex  1.557647e+000  8.200000e+000  1.682450e+001
      vertex  4.364429e+000  8.200000e+000  1.547282e+001
    endloop
  endfacet
  facet normal  0.000000e+000  1.000000e+000  0.000000e+000
    outer loop
      vertex -4.364429e+000  8.200000e+000  1.547282e+001
      vertex  4.364429e+000  8.200000e+000  1.547282e+001
      vertex -6.306782e+000  8.200000e+000  1.303719e+001
    endloop
  endfacet
  facet normal  0.000000e+000  1.000000e+000  0.000000e+000
    outer loop
      vertex -6.306782e+000  8.200000e+000  1.303719e+001
      vertex  4.364429e+000  8.200000e+000  1.547282e+001
      vertex  6.306782e+000  8.200000e+000  1.303719e+001
    endloop
  endfacet
  facet normal  0.000000e+000  1.000000e+000  0.000000e+000
    outer loop
      vertex -6.306782e+000  8.200000e+000  1.303719e+001
      vertex  6.306782e+000  8.200000e+000  1.303719e+001
      vertex -7.000000e+000  8.200000e+000  1.000000e+001
    endloop
  endfacet
  facet normal  0.000000e+000  9.999999e-001  0.000000e+000
    outer loop
      vertex -7.000000e+000  8.200000e+000  1.000000e+001
      vertex  6.306782e+000  8.200000e+000  1.303719e+001
      vertex  7.000000e+000  8.200000e+000  1.000000e+001
    endloop
  endfacet
  facet normal  0.000000e+000  1.000000e+000  0.000000e+000
    outer loop
      vertex -7.000000e+000  8.200000e+000  1.000000e+001
      vertex  7.000000e+000  8.200000e+000  1.000000e+001
      vertex -7.000000e+000  8.200000e+000  0.000000e+000
    endloop
  endfacet
  facet normal  0.000000e+000  1.000000e+000  0.000000e+000
    outer loop
      vertex -7.000000e+000  8.200000e+000  0.000000e+000
      vertex  7.000000e+000  8.200000e+000  1.000000e+001
      vertex  7.000000e+000  8.200000e+000  0.000000e+000
    endloop
  endfacet
  facet normal  -0.000000e+000 -1.000000e+000  0.000000e+000
    outer loop
      vertex -6.306782e+000 -8.200000e+000  1.303719e+001
      vertex  4.364429e+000 -8.200000e+000  1.547282e+001
      vertex -4.364429e+000 -8.200000e+000  1.547282e+001
    endloop
  endfacet
  facet normal  0.000000e+000 -9.999999e-001  0.000000e+000
    outer loop
      vertex -4.364429e+000 -8.200000e+000  1.547282e+001
      vertex  4.364429e+000 -8.200000e+000  1.547282e+001
      vertex  1.557647e+000 -8.200000e+000  1.682450e+001
    endloop
  endfacet
  facet normal  -0.000000e+000 -1.000000e+000  0.000000e+000
    outer loop
      vertex -4.364429e+000 -8.200000e+000  1.547282e+001
      vertex  1.557647e+000 -8.200000e+000  1.682450e+001
      vertex -1.557647e+000 -8.200000e+000  1.682450e+001
    endloop
  endfacet
  facet normal  0.000000e+000 -1.000000e+000  0.000000e+000
    outer loop
      vertex  4.364429e+000 -8.200000e+000  1.547282e+001
      vertex -6.306782e+000 -8.200000e+000  1.303719e+001
      vertex  6.306782e+000 -8.200000e+000  1.303719e+001
    endloop
  endfacet
  facet normal  -0.000000e+000 -1.000000e+000  0.000000e+000
    outer loop
      vertex  6.306782e+000 -8.200000e+000  1.303719e+001
      vertex -6.306782e+000 -8.200000e+000  1.303719e+001
      vertex -7.000000e+000 -8.200000e+000  1.000000e+001
    endloop
  endfacet
  facet normal  0.000000e+000 -9.999999e-001  0.000000e+000
    outer loop
      vertex  6.306782e+000 -8.200000e+000  1.303719e+001
      vertex -7.000000e+000 -8.200000e+000  1.000000e+001
      vertex  7.000000e+000 -8.200000e+000  1.000000e+001
    endloop
  endfacet
  facet normal  -0.000000e+000 -1.000000e+000  0.000000e+000
    outer loop
      vertex  7.000000e+000 -8.200000e+000  1.000000e+001
      vertex -7.000000e+000 -8.200000e+000  1.000000e+001
      vertex -7.000000e+000 -8.200000e+000  0.000000e+000
    endloop
  endfacet
  facet normal  0.000000e+000 -1.000000e+000  0.000000e+000
    outer loop
      vertex  7.000000e+000 -8.200000e+000  1.000000e+001
      vertex -7.000000e+000 -8.200000e+000  0.000000e+000
      vertex  7.000000e+000 -8.200000e+000  0.000000e+000
    endloop
  endfacet
  facet normal  0.000000e+000  0.000000e+000 -1.000000e+000
    outer loop
      vertex -8.652476e-001 -2.662958e+000  0.000000e+000
      vertex -2.404163e+000 -3.606245e+000  0.000000e+000
      vertex -2.155204e+000 -3.005204e+000  0.000000e+000
    endloop
  endfacet
  facet normal  0.000000e+000  0.000000e+000 -1.000000e+000
    outer loop
      vertex -8.652476e-001  2.662958e+000  0.000000e+000
      vertex -2.155204e+000  3.005204e+000  0.000000e+000
      vertex -2.404163e+000  3.606245e+000  0.000000e+000
    endloop
  endfacet
  facet normal  0.000000e+000  0.000000e+000 -1.000000e+000
    outer loop
      vertex -8.652476e-001  2.662958e+000  0.000000e+000
      vertex -2.404163e+000  2.404163e+000  0.000000e+000
      vertex -2.155204e+000  3.005204e+000  0.000000e+000
    endloop
  endfacet
  facet normal  0.000000e+000  0.000000e+000 -9.999999e-001
    outer loop
      vertex -2.265248e+000 -1.645799e+000  0.000000e+000
      vertex -3.005204e+000 -2.155204e+000  0.000000e+000
      vertex -2.800000e+000  3.428898e-016  0.000000e+000
    endloop
  endfacet
  facet normal  0.000000e+000  0.000000e+000 -1.000000e+000
    outer loop
      vertex  3.005204e+000  2.155204e+000  0.000000e+000
      vertex  3.606245e+000 -2.404163e+000  0.000000e+000
      vertex  3.005204e+000 -2.155204e+000  0.000000e+000
    endloop
  endfacet
  facet normal  0.000000e+000  0.000000e+000 -9.999999e-001
    outer loop
      vertex  2.800000e+000  0.000000e+000  0.000000e+000
      vertex  2.265248e+000  1.645799e+000  0.000000e+000
      vertex  3.005204e+000  2.155204e+000  0.000000e+000
    endloop
  endfacet
  facet normal  0.000000e+000  -0.000000e+000 -1.000000e+000
    outer loop
      vertex  2.800000e+000  0.000000e+000  0.000000e+000
      vertex  3.005204e+000  2.155204e+000  0.000000e+000
      vertex  3.005204e+000 -2.155204e+000  0.000000e+000
    endloop
  endfacet
  facet normal  0.000000e+000  0.000000e+000 -9.999999e-001
    outer loop
      vertex  2.800000e+000  0.000000e+000  0.000000e+000
      vertex  3.005204e+000 -2.155204e+000  0.000000e+000
      vertex  2.265248e+000 -1.645799e+000  0.000000e+000
    endloop
  endfacet
  facet normal  0.000000e+000  -0.000000e+000 -1.000000e+000
    outer loop
      vertex -3.005204e+000  2.155204e+000  0.000000e+000
      vertex -2.404163e+000  2.404163e+000  0.000000e+000
      vertex -8.652476e-001  2.662958e+000  0.000000e+000
    endloop
  endfacet
  facet normal  0.000000e+000  0.000000e+000 -1.000000e+000
    outer loop
      vertex -3.005204e+000  2.155204e+000  0.000000e+000
      vertex -8.652476e-001  2.662958e+000  0.000000e+000
      vertex -2.265248e+000  1.645799e+000  0.000000e+000
    endloop
  endfacet
  facet normal  -0.000000e+000  0.000000e+000 -9.999999e-001
    outer loop
      vertex -3.005204e+000  2.155204e+000  0.000000e+000
      vertex -2.265248e+000  1.645799e+000  0.000000e+000
      vertex -2.800000e+000  3.428898e-016  0.000000e+000
    endloop
  endfacet
  facet normal  -0.000000e+000  0.000000e+000 -1.000000e+000
    outer loop
      vertex -3.005204e+000  2.155204e+000  0.000000e+000
      vertex -2.800000e+000  3.428898e-016  0.000000e+000
      vertex -3.005204e+000 -2.155204e+000  0.000000e+000
    endloop
  endfacet
  facet normal  -0.000000e+000  0.000000e+000 -1.000000e+000
    outer loop
      vertex -3.005204e+000  2.155204e+000  0.000000e+000
      vertex -3.005204e+000 -2.155204e+000  0.000000e+000
      vertex -3.606245e+000 -2.404163e+000  0.000000e+000
    endloop
  endfacet
  facet normal  0.000000e+000  0.000000e+000 -9.999999e-001
    outer loop
      vertex -7.000000e+000 -8.200000e+000  0.000000e+000
      vertex -7.000000e+000  8.200000e+000  0.000000e+000
      vertex -3.855204e+000  3.005204e+000  0.000000e+000
    endloop
  endfacet
  facet normal  0.000000e+000  -0.000000e+000 -1.000000e+000
    outer loop
      vertex -7.000000e+000 -8.200000e+000  0.000000e+000
      vertex -3.855204e+000  3.005204e+000  0.000000e+000
      vertex -3.606245e+000  2.404163e+000  0.000000e+000
    endloop
  endfacet
  facet normal  0.000000e+000  -0.000000e+000 -1.000000e+000
    outer loop
      vertex -7.000000e+000 -8.200000e+000  0.000000e+000
      vertex -3.606245e+000  2.404163e+000  0.000000e+000
      vertex -3.005204e+000  2.155204e+000  0.000000e+000
    endloop
  endfacet
  facet normal  0.000000e+000  0.000000e+000 -1.000000e+000
    outer loop
      vertex -7.000000e+000 -8.200000e+000  0.000000e+000
      vertex -3.005204e+000  2.155204e+000  0.000000e+000
      vertex -3.606245e+000 -2.404163e+000  0.000000e+000
    endloop
  endfacet
  facet normal  0.000000e+000  0.000000e+000 -1.000000e+000
    outer loop
      vertex -7.000000e+000 -8.200000e+000  0.000000e+000
      vertex -3.606245e+000 -2.404163e+000  0.000000e+000
      vertex -3.855204e+000 -3.005204e+000  0.000000e+000
    endloop
  endfacet
  facet normal  0.000000e+000  -0.000000e+000 -1.000000e+000
    outer loop
      vertex -7.000000e+000 -8.200000e+000  0.000000e+000
      vertex -3.855204e+000 -3.005204e+000  0.000000e+000
      vertex -3.606245e+000 -3.606245e+000  0.000000e+000
    endloop
  endfacet
  facet normal  0.000000e+000  -0.000000e+000 -1.000000e+000
    outer loop
      vertex -7.000000e+000 -8.200000e+000  0.000000e+000
      vertex -3.606245e+000 -3.606245e+000  0.000000e+000
      vertex -3.005204e+000 -3.855204e+000  0.000000e+000
    endloop
  endfacet
  facet normal  0.000000e+000  -0.000000e+000 -1.000000e+000
    outer loop
      vertex -7.000000e+000 -8.200000e+000  0.000000e+000
      vertex -3.005204e+000 -3.855204e+000  0.000000e+000
      vertex -2.404163e+000 -3.606245e+000  0.000000e+000
    endloop
  endfacet
  facet normal  0.000000e+000  -0.000000e+000 -1.000000e+000
    outer loop
      vertex -7.000000e+000 -8.200000e+000  0.000000e+000
      vertex -2.404163e+000 -3.606245e+000  0.000000e+000
      vertex -8.652476e-001 -2.662958e+000  0.000000e+000
    endloop
  endfacet
  facet normal  0.000000e+000  -0.000000e+000 -1.000000e+000
    outer loop
      vertex -7.000000e+000 -8.200000e+000  0.000000e+000
      vertex -8.652476e-001 -2.662958e+000  0.000000e+000
      vertex  8.652476e-001 -2.662958e+000  0.000000e+000
    endloop
  endfacet
  facet normal  0.000000e+000  -0.000000e+000 -1.000000e+000
    outer loop
      vertex -7.000000e+000 -8.200000e+000  0.000000e+000
      vertex  8.652476e-001 -2.662958e+000  0.000000e+000
      vertex  2.155204e+000 -3.005204e+000  0.000000e+000
    endloop
  endfacet
  facet normal  0.000000e+000  -0.000000e+000 -9.999999e-001
    outer loop
      vertex -7.000000e+000 -8.200000e+000  0.000000e+000
      vertex  2.155204e+000 -3.005204e+000  0.000000e+000
      vertex  2.404163e+000 -3.606245e+000  0.000000e+000
    endloop
  endfacet
  facet normal  0.000000e+000  -0.000000e+000 -1.000000e+000
    outer loop
      vertex -7.000000e+000 -8.200000e+000  0.000000e+000
      vertex  2.404163e+000 -3.606245e+000  0.000000e+000
      vertex  3.005204e+000 -3.855204e+000  0.000000e+000
    endloop
  endfacet
  facet normal  0.000000e+000  -0.000000e+000 -1.000000e+000
    outer loop
      vertex -7.000000e+000 -8.200000e+000  0.000000e+000
      vertex  3.005204e+000 -3.855204e+000  0.000000e+000
      vertex  7.000000e+000 -8.200000e+000  0.000000e+000
    endloop
  endfacet
  facet normal  -0.000000e+000  0.000000e+000 -1.000000e+000
    outer loop
      vertex -7.000000e+000  8.200000e+000  0.000000e+000
      vertex  7.000000e+000  8.200000e+000  0.000000e+000
      vertex  3.005204e+000  3.855204e+000  0.000000e+000
    endloop
  endfacet
  facet normal  -0.000000e+000  0.000000e+000 -1.000000e+000
    outer loop
      vertex -7.000000e+000  8.200000e+000  0.000000e+000
      vertex  3.005204e+000  3.855204e+000  0.000000e+000
      vertex  2.404163e+000  3.606245e+000  0.000000e+000
    endloop
  endfacet
  facet normal  -0.000000e+000  0.000000e+000 -9.999999e-001
    outer loop
      vertex -7.000000e+000  8.200000e+000  0.000000e+000
      vertex  2.404163e+000  3.606245e+000  0.000000e+000
      vertex  2.155204e+000  3.005204e+000  0.000000e+000
    endloop
  endfacet
  facet normal  -0.000000e+000  0.000000e+000 -1.000000e+000
    outer loop
      vertex -7.000000e+000  8.200000e+000  0.000000e+000
      vertex  2.155204e+000  3.005204e+000  0.000000e+000
      vertex  8.652476e-001  2.662958e+000  0.000000e+000
    endloop
  endfacet
  facet normal  0.000000e+000  0.000000e+000 -1.000000e+000
    outer loop
      vertex -7.000000e+000  8.200000e+000  0.000000e+000
      vertex  8.652476e-001  2.662958e+000  0.000000e+000
      vertex -8.652476e-001  2.662958e+000  0.000000e+000
    endloop
  endfacet
  facet normal  0.000000e+000  0.000000e+000 -9.999999e-001
    outer loop
      vertex -7.000000e+000  8.200000e+000  0.000000e+000
      vertex -8.652476e-001  2.662958e+000  0.000000e+000
      vertex -2.404163e+000  3.606245e+000  0.000000e+000
    endloop
  endfacet
  facet normal  0.000000e+000  0.000000e+000 -1.000000e+000
    outer loop
      vertex -7.000000e+000  8.200000e+000  0.000000e+000
      vertex -2.404163e+000  3.606245e+000  0.000000e+000
      vertex -3.005204e+000  3.855204e+000  0.000000e+000
    endloop
  endfacet
  facet normal  -0.000000e+000  0.000000e+000 -1.000000e+000
    outer loop
      vertex -7.000000e+000  8.200000e+000  0.000000e+000
      vertex -3.005204e+000  3.855204e+000  0.000000e+000
      vertex -3.606245e+000  3.606245e+000  0.000000e+000
    endloop
  endfacet
  facet normal  -0.000000e+000  0.000000e+000 -1.000000e+000
    outer loop
      vertex -7.000000e+000  8.200000e+000  0.000000e+000
      vertex -3.606245e+000  3.606245e+000  0.000000e+000
      vertex -3.855204e+000  3.005204e+000  0.000000e+000
    endloop
  endfacet
  facet normal  0.000000e+000  0.000000e+000 -1.000000e+000
    outer loop
      vertex  7.000000e+000 -8.200000e+000  0.000000e+000
      vertex  3.005204e+000 -3.855204e+000  0.000000e+000
      vertex  3.606245e+000 -3.606245e+000  0.000000e+000
    endloop
  endfacet
  facet normal  0.000000e+000  0.000000e+000 -1.000000e+000
    outer loop
      vertex  7.000000e+000 -8.200000e+000  0.000000e+000
      vertex  3.606245e+000 -3.606245e+000  0.000000e+000
      vertex  3.855204e+000 -3.005204e+000  0.000000e+000
    endloop
  endfacet
  facet normal  0.000000e+000  0.000000e+000 -1.000000e+000
    outer loop
      vertex  7.000000e+000 -8.200000e+000  0.000000e+000
      vertex  3.855204e+000 -3.005204e+000  0.000000e+000
      vertex  3.606245e+000 -2.404163e+000  0.000000e+000
    endloop
  endfacet
  facet normal  0.000000e+000  0.000000e+000 -1.000000e+000
    outer loop
      vertex  7.000000e+000 -8.200000e+000  0.000000e+000
      vertex  3.606245e+000 -2.404163e+000  0.000000e+000
      vertex  3.005204e+000  2.155204e+000  0.000000e+000
    endloop
  endfacet
  facet normal  0.000000e+000  0.000000e+000 -1.000000e+000
    outer loop
      vertex  7.000000e+000 -8.200000e+000  0.000000e+000
      vertex  3.005204e+000  2.155204e+000  0.000000e+000
      vertex  3.606245e+000  2.404163e+000  0.000000e+000
    endloop
  endfacet
  facet normal  0.000000e+000  0.000000e+000 -1.000000e+000
    outer loop
      vertex  7.000000e+000 -8.200000e+000  0.000000e+000
      vertex  3.606245e+000  2.404163e+000  0.000000e+000
      vertex  3.855204e+000  3.005204e+000  0.000000e+000
    endloop
  endfacet
  facet normal  0.000000e+000  0.000000e+000 -9.999999e-001
    outer loop
      vertex  7.000000e+000  8.200000e+000  0.000000e+000
      vertex  7.000000e+000 -8.200000e+000  0.000000e+000
      vertex  3.855204e+000  3.005204e+000  0.000000e+000
    endloop
  endfacet
  facet normal  0.000000e+000  0.000000e+000 -1.000000e+000
    outer loop
      vertex  7.000000e+000  8.200000e+000  0.000000e+000
      vertex  3.855204e+000  3.005204e+000  0.000000e+000
      vertex  3.606245e+000  3.606245e+000  0.000000e+000
    endloop
  endfacet
  facet normal  0.000000e+000  0.000000e+000 -1.000000e+000
    outer loop
      vertex  7.000000e+000  8.200000e+000  0.000000e+000
      vertex  3.606245e+000  3.606245e+000  0.000000e+000
      vertex  3.005204e+000  3.855204e+000  0.000000e+000
    endloop
  endfacet
  facet normal  0.000000e+000  0.000000e+000 -1.000000e+000
    outer loop
      vertex -2.155204e+000 -3.005204e+000  0.000000e+000
      vertex -2.404163e+000 -2.404163e+000  0.000000e+000
      vertex -8.652476e-001 -2.662958e+000  0.000000e+000
    endloop
  endfacet
  facet normal  0.000000e+000  0.000000e+000 -9.999999e-001
    outer loop
      vertex -8.652476e-001 -2.662958e+000  0.000000e+000
      vertex -2.404163e+000 -2.404163e+000  0.000000e+000
      vertex -3.005204e+000 -2.155204e+000  0.000000e+000
    endloop
  endfacet
  facet normal  0.000000e+000  0.000000e+000 -1.000000e+000
    outer loop
      vertex -8.652476e-001 -2.662958e+000  0.000000e+000
      vertex -3.005204e+000 -2.155204e+000  0.000000e+000
      vertex -2.265248e+000 -1.645799e+000  0.000000e+000
    endloop
  endfacet
  facet normal  0.000000e+000  0.000000e+000 -1.000000e+000
    outer loop
      vertex  2.155204e+000  3.005204e+000  0.000000e+000
      vertex  2.404163e+000  2.404163e+000  0.000000e+000
      vertex  8.652476e-001  2.662958e+000  0.000000e+000
    endloop
  endfacet
  facet normal  0.000000e+000  0.000000e+000 -9.999999e-001
    outer loop
      vertex  8.652476e-001  2.662958e+000  0.000000e+000
      vertex  2.404163e+000  2.404163e+000  0.000000e+000
      vertex  3.005204e+000  2.155204e+000  0.000000e+000
    endloop
  endfacet
  facet normal  -0.000000e+000  0.000000e+000 -1.000000e+000
    outer loop
      vertex  8.652476e-001  2.662958e+000  0.000000e+000
      vertex  3.005204e+000  2.155204e+000  0.000000e+000
      vertex  2.265248e+000  1.645799e+000  0.000000e+000
    endloop
  endfacet
  facet normal  0.000000e+000  0.000000e+000 -1.000000e+000
    outer loop
      vertex  2.155204e+000 -3.005204e+000  0.000000e+000
      vertex  8.652476e-001 -2.662958e+000  0.000000e+000
      vertex  2.404163e+000 -2.404163e+000  0.000000e+000
    endloop
  endfacet
  facet normal  -0.000000e+000  0.000000e+000 -1.000000e+000
    outer loop
      vertex  2.404163e+000 -2.404163e+000  0.000000e+000
      vertex  8.652476e-001 -2.662958e+000  0.000000e+000
      vertex  2.265248e+000 -1.645799e+000  0.000000e+000
    endloop
  endfacet
  facet normal  0.000000e+000  0.000000e+000 -1.000000e+000
    outer loop
      vertex  2.404163e+000 -2.404163e+000  0.000000e+000
      vertex  2.265248e+000 -1.645799e+000  0.000000e+000
      vertex  3.005204e+000 -2.155204e+000  0.000000e+000
    endloop
  endfacet
  facet normal  9.999999e-001  0.000000e+000  0.000000e+000
    outer loop
      vertex  7.000000e+000 -8.200000e+000  0.000000e+000
      vertex  7.000000e+000 -7.000000e+000  1.000000e+001
      vertex  7.000000e+000 -8.200000e+000  1.000000e+001
    endloop
  endfacet
  facet normal  1.000000e+000  0.000000e+000  0.000000e+000
    outer loop
      vertex  7.000000e+000 -7.000000e+000  1.000000e+001
      vertex  7.000000e+000 -8.200000e+000  0.000000e+000
      vertex  7.000000e+000 -7.000000e+000  1.500000e+000
    endloop
  endfacet
  facet normal  1.000000e+000  0.000000e+000  0.000000e+000
    outer loop
      vertex  7.000000e+000 -7.000000e+000  1.500000e+000
      vertex  7.000000e+000 -8.200000e+000  0.000000e+000
      vertex  7.000000e+000  8.200000e+000  0.000000e+000
    endloop
  endfacet
  facet normal  1.000000e+000  0.000000e+000  0.000000e+000
    outer loop
      vertex  7.000000e+000 -7.000000e+000  1.500000e+000
      vertex  7.000000e+000  8.200000e+000  0.000000e+000
      vertex  7.000000e+000  7.000000e+000  1.500000e+000
    endloop
  endfacet
  facet normal  9.999999e-001  -0.000000e+000  0.000000e+000
    outer loop
      vertex  7.000000e+000  7.000000e+000  1.500000e+000
      vertex  7.000000e+000  8.200000e+000  0.000000e+000
      vertex  7.000000e+000  8.200000e+000  1.000000e+001
    endloop
  endfacet
  facet normal  1.000000e+000  0.000000e+000  0.000000e+000
    outer loop
      vertex  7.000000e+000  7.000000e+000  1.500000e+000
      vertex  7.000000e+000  8.200000e+000  1.000000e+001
      vertex  7.000000e+000  7.000000e+000  1.000000e+001
    endloop
  endfacet
  facet normal -9.999999e-001  0.000000e+000  0.000000e+000
    outer loop
      vertex -7.000000e+000  8.200000e+000  0.000000e+000
      vertex -7.000000e+000  7.000000e+000  1.000000e+001
      vertex -7.000000e+000  8.200000e+000  1.000000e+001
    endloop
  endfacet
  facet normal -1.000000e+000  0.000000e+000  0.000000e+000
    outer loop
      vertex -7.000000e+000  7.000000e+000  1.000000e+001
      vertex -7.000000e+000  8.200000e+000  0.000000e+000
      vertex -7.000000e+000  7.000000e+000  1.500000e+000
    endloop
  endfacet
  facet normal -1.000000e+000  0.000000e+000  -0.000000e+000
    outer loop
      vertex -7.000000e+000  7.000000e+000  1.500000e+000
      vertex -7.000000e+000  8.200000e+000  0.000000e+000
      vertex -7.000000e+000 -8.200000e+000  0.000000e+000
    endloop
  endfacet
  facet normal -1.000000e+000  0.000000e+000  0.000000e+000
    outer loop
      vertex -7.000000e+000  7.000000e+000  1.500000e+000
      vertex -7.000000e+000 -8.200000e+000  0.000000e+000
      vertex -7.000000e+000 -7.000000e+000  1.500000e+000
    endloop
  endfacet
  facet normal -9.999999e-001  -0.000000e+000  0.000000e+000
    outer loop
      vertex -7.000000e+000 -7.000000e+000  1.500000e+000
      vertex -7.000000e+000 -8.200000e+000  0.000000e+000
      vertex -7.000000e+000 -8.200000e+000  1.000000e+001
    endloop
  endfacet
  facet normal -1.000000e+000  0.000000e+000  0.000000e+000
    outer loop
      vertex -7.000000e+000 -7.000000e+000  1.500000e+000
      vertex -7.000000e+000 -8.200000e+000  1.000000e+001
      vertex -7.000000e+000 -7.000000e+000  1.000000e+001
    endloop
  endfacet
  facet normal  0.000000e+000  1.000000e+000  0.000000e+000
    outer loop
      vertex -1.557647e+000 -7.000000e+000  1.682450e+001
      vertex -6.306782e+000 -7.000000e+000  1.303719e+001
      vertex -4.364429e+000 -7.000000e+000  1.547282e+001
    endloop
  endfacet
  facet normal  0.000000e+000  1.000000e+000  0.000000e+000
    outer loop
      vertex  7.000000e+000 -7.000000e+000  1.500000e+000
      vertex  6.306782e+000 -7.000000e+000  1.303719e+001
      vertex  7.000000e+000 -7.000000e+000  1.000000e+001
    endloop
  endfacet
  facet normal  0.000000e+000  1.000000e+000  0.000000e+000
    outer loop
      vertex -7.000000e+000 -7.000000e+000  1.000000e+001
      vertex -6.306782e+000 -7.000000e+000  1.303719e+001
      vertex -7.000000e+000 -7.000000e+000  1.500000e+000
    endloop
  endfacet
  facet normal  0.000000e+000  1.000000e+000  0.000000e+000
    outer loop
      vertex -7.000000e+000 -7.000000e+000  1.500000e+000
      vertex -6.306782e+000 -7.000000e+000  1.303719e+001
      vertex -1.557647e+000 -7.000000e+000  1.682450e+001
    endloop
  endfacet
  facet normal  0.000000e+000  1.000000e+000  0.000000e+000
    outer loop
      vertex -7.000000e+000 -7.000000e+000  1.500000e+000
      vertex -1.557647e+000 -7.000000e+000  1.682450e+001
      vertex  7.000000e+000 -7.000000e+000  1.500000e+000
    endloop
  endfacet
  facet normal  0.000000e+000  1.000000e+000  0.000000e+000
    outer loop
      vertex  7.000000e+000 -7.000000e+000  1.500000e+000
      vertex -1.557647e+000 -7.000000e+000  1.682450e+001
      vertex  1.557647e+000 -7.000000e+000  1.682450e+001
    endloop
  endfacet
  facet normal  0.000000e+000  1.000000e+000  0.000000e+000
    outer loop
      vertex  7.000000e+000 -7.000000e+000  1.500000e+000
      vertex  1.557647e+000 -7.000000e+000  1.682450e+001
      vertex  6.306782e+000 -7.000000e+000  1.303719e+001
    endloop
  endfacet
  facet normal  0.000000e+000  1.000000e+000  0.000000e+000
    outer loop
      vertex  6.306782e+000 -7.000000e+000  1.303719e+001
      vertex  1.557647e+000 -7.000000e+000  1.682450e+001
      vertex  4.364429e+000 -7.000000e+000  1.547282e+001
    endloop
  endfacet
  facet normal  0.000000e+000  0.000000e+000  1.000000e+000
    outer loop
      vertex -2.155204e+000 -3.005204e+000  1.500000e+000
      vertex -2.404163e+000 -3.606245e+000  1.500000e+000
      vertex -8.652476e-001 -2.662958e+000  1.500000e+000
    endloop
  endfacet
  facet normal  -0.000000e+000  -0.000000e+000  1.000000e+000
    outer loop
      vertex -2.404163e+000  3.606245e+000  1.500000e+000
      vertex -2.155204e+000  3.005204e+000  1.500000e+000
      vertex -8.652476e-001  2.662958e+000  1.500000e+000
    endloop
  endfacet
  facet normal  0.000000e+000  0.000000e+000  1.000000e+000
    outer loop
      vertex -3.005204e+000  2.155204e+000  1.500000e+000
      vertex -3.606245e+000 -2.404163e+000  1.500000e+000
      vertex -3.005204e+000 -2.155204e+000  1.500000e+000
    endloop
  endfacet
  facet normal  0.000000e+000  0.000000e+000  1.000000e+000
    outer loop
      vertex  3.005204e+000 -2.155204e+000  1.500000e+000
      vertex  3.606245e+000 -2.404163e+000  1.500000e+000
      vertex  3.005204e+000  2.155204e+000  1.500000e+000
    endloop
  endfacet
  facet normal  -0.000000e+000  0.000000e+000  9.999999e-001
    outer loop
      vertex  2.800000e+000  0.000000e+000  1.500000e+000
      vertex  2.265248e+000 -1.645799e+000  1.500000e+000
      vertex  3.005204e+000 -2.155204e+000  1.500000e+000
    endloop
  endfacet
  facet normal  0.000000e+000  -0.000000e+000  1.000000e+000
    outer loop
      vertex  2.800000e+000  0.000000e+000  1.500000e+000
      vertex  3.005204e+000 -2.155204e+000  1.500000e+000
      vertex  3.005204e+000  2.155204e+000  1.500000e+000
    endloop
  endfacet
  facet normal  0.000000e+000  0.000000e+000  9.999999e-001
    outer loop
      vertex  2.800000e+000  0.000000e+000  1.500000e+000
      vertex  3.005204e+000  2.155204e+000  1.500000e+000
      vertex  2.265248e+000  1.645799e+000  1.500000e+000
    endloop
  endfacet
  facet normal  0.000000e+000  0.000000e+000  9.999999e-001
    outer loop
      vertex -2.800000e+000  3.428898e-016  1.500000e+000
      vertex -2.265248e+000  1.645799e+000  1.500000e+000
      vertex -3.005204e+000  2.155204e+000  1.500000e+000
    endloop
  endfacet
  facet normal  0.000000e+000  0.000000e+000  1.000000e+000
    outer loop
      vertex -2.800000e+000  3.428898e-016  1.500000e+000
      vertex -3.005204e+000  2.155204e+000  1.500000e+000
      vertex -3.005204e+000 -2.155204e+000  1.500000e+000
    endloop
  endfacet
  facet normal  0.000000e+000  0.000000e+000  9.999999e-001
    outer loop
      vertex -2.800000e+000  3.428898e-016  1.500000e+000
      vertex -3.005204e+000 -2.155204e+000  1.500000e+000
      vertex -2.265248e+000 -1.645799e+000  1.500000e+000
    endloop
  endfacet
  facet normal  0.000000e+000  0.000000e+000  1.000000e+000
    outer loop
      vertex -7.000000e+000 -7.000000e+000  1.500000e+000
      vertex  7.000000e+000 -7.000000e+000  1.500000e+000
      vertex  3.005204e+000 -3.855204e+000  1.500000e+000
    endloop
  endfacet
  facet normal  0.000000e+000  0.000000e+000  1.000000e+000
    outer loop
      vertex -7.000000e+000 -7.000000e+000  1.500000e+000
      vertex  3.005204e+000 -3.855204e+000  1.500000e+000
      vertex  2.404163e+000 -3.606245e+000  1.500000e+000
    endloop
  endfacet
  facet normal  0.000000e+000  0.000000e+000  1.000000e+000
    outer loop
      vertex -7.000000e+000 -7.000000e+000  1.500000e+000
      vertex  2.404163e+000 -3.606245e+000  1.500000e+000
      vertex  2.155204e+000 -3.005204e+000  1.500000e+000
    endloop
  endfacet
  facet normal  0.000000e+000  0.000000e+000  1.000000e+000
    outer loop
      vertex -7.000000e+000 -7.000000e+000  1.500000e+000
      vertex  2.155204e+000 -3.005204e+000  1.500000e+000
      vertex  8.652476e-001 -2.662958e+000  1.500000e+000
    endloop
  endfacet
  facet normal  0.000000e+000  0.000000e+000  9.999999e-001
    outer loop
      vertex -7.000000e+000 -7.000000e+000  1.500000e+000
      vertex  8.652476e-001 -2.662958e+000  1.500000e+000
      vertex -8.652476e-001 -2.662958e+000  1.500000e+000
    endloop
  endfacet
  facet normal  0.000000e+000  0.000000e+000  9.999999e-001
    outer loop
      vertex -7.000000e+000 -7.000000e+000  1.500000e+000
      vertex -8.652476e-001 -2.662958e+000  1.500000e+000
      vertex -2.404163e+000 -3.606245e+000  1.500000e+000
    endloop
  endfacet
  facet normal  0.000000e+000  0.000000e+000  1.000000e+000
    outer loop
      vertex -7.000000e+000 -7.000000e+000  1.500000e+000
      vertex -2.404163e+000 -3.606245e+000  1.500000e+000
      vertex -3.005204e+000 -3.855204e+000  1.500000e+000
    endloop
  endfacet
  facet normal  0.000000e+000  0.000000e+000  9.999999e-001
    outer loop
      vertex -7.000000e+000 -7.000000e+000  1.500000e+000
      vertex -3.005204e+000 -3.855204e+000  1.500000e+000
      vertex -3.606245e+000 -3.606245e+000  1.500000e+000
    endloop
  endfacet
  facet normal  0.000000e+000  0.000000e+000  9.999999e-001
    outer loop
      vertex -7.000000e+000 -7.000000e+000  1.500000e+000
      vertex -3.606245e+000 -3.606245e+000  1.500000e+000
      vertex -3.855204e+000 -3.005204e+000  1.500000e+000
    endloop
  endfacet
  facet normal  0.000000e+000  -0.000000e+000  9.999999e-001
    outer loop
      vertex -7.000000e+000 -7.000000e+000  1.500000e+000
      vertex -3.855204e+000 -3.005204e+000  1.500000e+000
      vertex -3.606245e+000 -2.404163e+000  1.500000e+000
    endloop
  endfacet
  facet normal  0.000000e+000  -0.000000e+000  1.000000e+000
    outer loop
      vertex -7.000000e+000 -7.000000e+000  1.500000e+000
      vertex -3.606245e+000 -2.404163e+000  1.500000e+000
      vertex -3.005204e+000  2.155204e+000  1.500000e+000
    endloop
  endfacet
  facet normal  0.000000e+000  0.000000e+000  9.999999e-001
    outer loop
      vertex -7.000000e+000 -7.000000e+000  1.500000e+000
      vertex -3.005204e+000  2.155204e+000  1.500000e+000
      vertex -3.606245e+000  2.404163e+000  1.500000e+000
    endloop
  endfacet
  facet normal  0.000000e+000  0.000000e+000  1.000000e+000
    outer loop
      vertex -7.000000e+000 -7.000000e+000  1.500000e+000
      vertex -3.606245e+000  2.404163e+000  1.500000e+000
      vertex -3.855204e+000  3.005204e+000  1.500000e+000
    endloop
  endfacet
  facet normal  0.000000e+000  0.000000e+000  1.000000e+000
    outer loop
      vertex -7.000000e+000 -7.000000e+000  1.500000e+000
      vertex -3.855204e+000  3.005204e+000  1.500000e+000
      vertex -7.000000e+000  7.000000e+000  1.500000e+000
    endloop
  endfacet
  facet normal  0.000000e+000  -0.000000e+000  9.999999e-001
    outer loop
      vertex -7.000000e+000  7.000000e+000  1.500000e+000
      vertex -3.855204e+000  3.005204e+000  1.500000e+000
      vertex -3.606245e+000  3.606245e+000  1.500000e+000
    endloop
  endfacet
  facet normal  0.000000e+000  -0.000000e+000  9.999999e-001
    outer loop
      vertex -7.000000e+000  7.000000e+000  1.500000e+000
      vertex -3.606245e+000  3.606245e+000  1.500000e+000
      vertex -3.005204e+000  3.855204e+000  1.500000e+000
    endloop
  endfacet
  facet normal  -0.000000e+000  -0.000000e+000  9.999999e-001
    outer loop
      vertex -7.000000e+000  7.000000e+000  1.500000e+000
      vertex -3.005204e+000  3.855204e+000  1.500000e+000
      vertex -2.404163e+000  3.606245e+000  1.500000e+000
    endloop
  endfacet
  facet normal  -0.000000e+000  -0.000000e+000  1.000000e+000
    outer loop
      vertex -7.000000e+000  7.000000e+000  1.500000e+000
      vertex -2.404163e+000  3.606245e+000  1.500000e+000
      vertex -8.652476e-001  2.662958e+000  1.500000e+000
    endloop
  endfacet
  facet normal  0.000000e+000  -0.000000e+000  9.999999e-001
    outer loop
      vertex -7.000000e+000  7.000000e+000  1.500000e+000
      vertex -8.652476e-001  2.662958e+000  1.500000e+000
      vertex  8.652476e-001  2.662958e+000  1.500000e+000
    endloop
  endfacet
  facet normal  0.000000e+000  -0.000000e+000  1.000000e+000
    outer loop
      vertex -7.000000e+000  7.000000e+000  1.500000e+000
      vertex  8.652476e-001  2.662958e+000  1.500000e+000
      vertex  2.155204e+000  3.005204e+000  1.500000e+000
    endloop
  endfacet
  facet normal  0.000000e+000  -0.000000e+000  9.999999e-001
    outer loop
      vertex -7.000000e+000  7.000000e+000  1.500000e+000
      vertex  2.155204e+000  3.005204e+000  1.500000e+000
      vertex  2.404163e+000  3.606245e+000  1.500000e+000
    endloop
  endfacet
  facet normal  0.000000e+000  -0.000000e+000  1.000000e+000
    outer loop
      vertex -7.000000e+000  7.000000e+000  1.500000e+000
      vertex  2.404163e+000  3.606245e+000  1.500000e+000
      vertex  3.005204e+000  3.855204e+000  1.500000e+000
    endloop
  endfacet
  facet normal  0.000000e+000  -0.000000e+000  1.000000e+000
    outer loop
      vertex -7.000000e+000  7.000000e+000  1.500000e+000
      vertex  3.005204e+000  3.855204e+000  1.500000e+000
      vertex  7.000000e+000  7.000000e+000  1.500000e+000
    endloop
  endfacet
  facet normal  0.000000e+000  0.000000e+000  1.000000e+000
    outer loop
      vertex  7.000000e+000 -7.000000e+000  1.500000e+000
      vertex  3.855204e+000  3.005204e+000  1.500000e+000
      vertex  3.606245e+000  2.404163e+000  1.500000e+000
    endloop
  endfacet
  facet normal  0.000000e+000  0.000000e+000  1.000000e+000
    outer loop
      vertex  7.000000e+000 -7.000000e+000  1.500000e+000
      vertex  3.606245e+000  2.404163e+000  1.500000e+000
      vertex  3.005204e+000  2.155204e+000  1.500000e+000
    endloop
  endfacet
  facet normal  0.000000e+000  0.000000e+000  1.000000e+000
    outer loop
      vertex  7.000000e+000 -7.000000e+000  1.500000e+000
      vertex  3.005204e+000  2.155204e+000  1.500000e+000
      vertex  3.606245e+000 -2.404163e+000  1.500000e+000
    endloop
  endfacet
  facet normal  0.000000e+000  0.000000e+000  1.000000e+000
    outer loop
      vertex  7.000000e+000 -7.000000e+000  1.500000e+000
      vertex  3.606245e+000 -2.404163e+000  1.500000e+000
      vertex  3.855204e+000 -3.005204e+000  1.500000e+000
    endloop
  endfacet
  facet normal  0.000000e+000  0.000000e+000  9.999999e-001
    outer loop
      vertex  7.000000e+000 -7.000000e+000  1.500000e+000
      vertex  3.855204e+000 -3.005204e+000  1.500000e+000
      vertex  3.606245e+000 -3.606245e+000  1.500000e+000
    endloop
  endfacet
  facet normal  0.000000e+000  0.000000e+000  9.999999e-001
    outer loop
      vertex  7.000000e+000 -7.000000e+000  1.500000e+000
      vertex  3.606245e+000 -3.606245e+000  1.500000e+000
      vertex  3.005204e+000 -3.855204e+000  1.500000e+000
    endloop
  endfacet
  facet normal  -0.000000e+000  0.000000e+000  9.999999e-001
    outer loop
      vertex  7.000000e+000  7.000000e+000  1.500000e+000
      vertex  3.005204e+000  3.855204e+000  1.500000e+000
      vertex  3.606245e+000  3.606245e+000  1.500000e+000
    endloop
  endfacet
  facet normal  -0.000000e+000  0.000000e+000  9.999999e-001
    outer loop
      vertex  7.000000e+000  7.000000e+000  1.500000e+000
      vertex  3.606245e+000  3.606245e+000  1.500000e+000
      vertex  3.855204e+000  3.005204e+000  1.500000e+000
    endloop
  endfacet
  facet normal  -0.000000e+000  0.000000e+000  1.000000e+000
    outer loop
      vertex  7.000000e+000  7.000000e+000  1.500000e+000
      vertex  3.855204e+000  3.005204e+000  1.500000e+000
      vertex  7.000000e+000 -7.000000e+000  1.500000e+000
    endloop
  endfacet
  facet normal  0.000000e+000  0.000000e+000  1.000000e+000
    outer loop
      vertex -3.005204e+000  2.155204e+000  1.500000e+000
      vertex -2.265248e+000  1.645799e+000  1.500000e+000
      vertex -2.404163e+000  2.404163e+000  1.500000e+000
    endloop
  endfacet
  facet normal  -0.000000e+000  0.000000e+000  1.000000e+000
    outer loop
      vertex -2.404163e+000  2.404163e+000  1.500000e+000
      vertex -2.265248e+000  1.645799e+000  1.500000e+000
      vertex -8.652476e-001  2.662958e+000  1.500000e+000
    endloop
  endfacet
  facet normal  0.000000e+000  0.000000e+000  1.000000e+000
    outer loop
      vertex -2.404163e+000  2.404163e+000  1.500000e+000
      vertex -8.652476e-001  2.662958e+000  1.500000e+000
      vertex -2.155204e+000  3.005204e+000  1.500000e+000
    endloop
  endfacet
  facet normal  -0.000000e+000  0.000000e+000  1.000000e+000
    outer loop
      vertex -2.265248e+000 -1.645799e+000  1.500000e+000
      vertex -3.005204e+000 -2.155204e+000  1.500000e+000
      vertex -8.652476e-001 -2.662958e+000  1.500000e+000
    endloop
  endfacet
  facet normal  0.000000e+000  0.000000e+000  9.999999e-001
    outer loop
      vertex -8.652476e-001 -2.662958e+000  1.500000e+000
      vertex -3.005204e+000 -2.155204e+000  1.500000e+000
      vertex -2.404163e+000 -2.404163e+000  1.500000e+000
    endloop
  endfacet
  facet normal  0.000000e+000  0.000000e+000  1.000000e+000
    outer loop
      vertex -8.652476e-001 -2.662958e+000  1.500000e+000
      vertex -2.404163e+000 -2.404163e+000  1.500000e+000
      vertex -2.155204e+000 -3.005204e+000  1.500000e+000
    endloop
  endfacet
  facet normal  0.000000e+000  0.000000e+000  1.000000e+000
    outer loop
      vertex  2.265248e+000  1.645799e+000  1.500000e+000
      vertex  3.005204e+000  2.155204e+000  1.500000e+000
      vertex  8.652476e-001  2.662958e+000  1.500000e+000
    endloop
  endfacet
  facet normal  0.000000e+000  0.000000e+000  9.999999e-001
    outer loop
      vertex  8.652476e-001  2.662958e+000  1.500000e+000
      vertex  3.005204e+000  2.155204e+000  1.500000e+000
      vertex  2.404163e+000  2.404163e+000  1.500000e+000
    endloop
  endfacet
  facet normal  0.000000e+000  0.000000e+000  1.000000e+000
    outer loop
      vertex  8.652476e-001  2.662958e+000  1.500000e+000
      vertex  2.404163e+000  2.404163e+000  1.500000e+000
      vertex  2.155204e+000  3.005204e+000  1.500000e+000
    endloop
  endfacet
  facet normal  0.000000e+000  0.000000e+000  1.000000e+000
    outer loop
      vertex  3.005204e+000 -2.155204e+000  1.500000e+000
      vertex  2.265248e+000 -1.645799e+000  1.500000e+000
      vertex  2.404163e+000 -2.404163e+000  1.500000e+000
    endloop
  endfacet
  facet normal  0.000000e+000  0.000000e+000  1.000000e+000
    outer loop
      vertex  2.404163e+000 -2.404163e+000  1.500000e+000
      vertex  2.265248e+000 -1.645799e+000  1.500000e+000
      vertex  8.652476e-001 -2.662958e+000  1.500000e+000
    endloop
  endfacet
  facet normal  -0.000000e+000  0.000000e+000  1.000000e+000
    outer loop
      vertex  2.404163e+000 -2.404163e+000  1.500000e+000
      vertex  8.652476e-001 -2.662958e+000  1.500000e+000
      vertex  2.155204e+000 -3.005204e+000  1.500000e+000
    endloop
  endfacet
  facet normal  9.749278e-001  0.000000e+000  2.225208e-001
    outer loop
      vertex  7.000000e+000 -8.200000e+000  1.000000e+001
      vertex  7.000000e+000 -7.000000e+000  1.000000e+001
      vertex  6.306782e+000 -8.200000e+000  1.303719e+001
    endloop
  endfacet
  facet normal  9.749278e-001  -0.000000e+000  2.225208e-001
    outer loop
      vertex  6.306782e+000 -8.200000e+000  1.303719e+001
      vertex  7.000000e+000 -7.000000e+000  1.000000e+001
      vertex  6.306782e+000 -7.000000e+000  1.303719e+001
    endloop
  endfacet
  facet normal  7.818314e-001  0.000000e+000  6.234899e-001
    outer loop
      vertex  6.306782e+000 -8.200000e+000  1.303719e+001
      vertex  6.306782e+000 -7.000000e+000  1.303719e+001
      vertex  4.364429e+000 -8.200000e+000  1.547282e+001
    endloop
  endfacet
  facet normal  7.818314e-001  -0.000000e+000  6.234899e-001
    outer loop
      vertex  4.364429e+000 -8.200000e+000  1.547282e+001
      vertex  6.306782e+000 -7.000000e+000  1.303719e+001
      vertex  4.364429e+000 -7.000000e+000  1.547282e+001
    endloop
  endfacet
  facet normal  4.338837e-001  0.000000e+000  9.009688e-001
    outer loop
      vertex  4.364429e+000 -8.200000e+000  1.547282e+001
      vertex  4.364429e+000 -7.000000e+000  1.547282e+001
      vertex  1.557647e+000 -8.200000e+000  1.682450e+001
    endloop
  endfacet
  facet normal  4.338837e-001  -0.000000e+000  9.009688e-001
    outer loop
      vertex  1.557647e+000 -8.200000e+000  1.682450e+001
      vertex  4.364429e+000 -7.000000e+000  1.547282e+001
      vertex  1.557647e+000 -7.000000e+000  1.682450e+001
    endloop
  endfacet
  facet normal  0.000000e+000  0.000000e+000  9.999999e-001
    outer loop
      vertex  1.557647e+000 -8.200000e+000  1.682450e+001
      vertex  1.557647e+000 -7.000000e+000  1.682450e+001
      vertex -1.557647e+000 -8.200000e+000  1.682450e+001
    endloop
  endfacet
  facet normal  0.000000e+000  0.000000e+000  9.999999e-001
    outer loop
      vertex -1.557647e+000 -8.200000e+000  1.682450e+001
      vertex  1.557647e+000 -7.000000e+000  1.682450e+001
      vertex -1.557647e+000 -7.000000e+000  1.682450e+001
    endloop
  endfacet
  facet normal -4.338837e-001  0.000000e+000  9.009688e-001
    outer loop
      vertex -1.557647e+000 -8.200000e+000  1.682450e+001
      vertex -1.557647e+000 -7.000000e+000  1.682450e+001
      vertex -4.364429e+000 -8.200000e+000  1.547282e+001
    endloop
  endfacet
  facet normal -4.338837e-001  0.000000e+000  9.009688e-001
    outer loop
      vertex -4.364429e+000 -8.200000e+000  1.547282e+001
      vertex -1.557647e+000 -7.000000e+000  1.682450e+001
      vertex -4.364429e+000 -7.000000e+000  1.547282e+001
    endloop
  endfacet
  facet normal -7.818314e-001  0.000000e+000  6.234899e-001
    outer loop
      vertex -4.364429e+000 -8.200000e+000  1.547282e+001
      vertex -4.364429e+000 -7.000000e+000  1.547282e+001
      vertex -6.306782e+000 -8.200000e+000  1.303719e+001
    endloop
  endfacet
  facet normal -7.818314e-001  0.000000e+000  6.234899e-001
    outer loop
      vertex -6.306782e+000 -8.200000e+000  1.303719e+001
      vertex -4.364429e+000 -7.000000e+000  1.547282e+001
      vertex -6.306782e+000 -7.000000e+000  1.303719e+001
    endloop
  endfacet
  facet normal -9.749278e-001  0.000000e+000  2.225208e-001
    outer loop
      vertex -6.306782e+000 -8.200000e+000  1.303719e+001
      vertex -6.306782e+000 -7.000000e+000  1.303719e+001
      vertex -7.000000e+000 -8.200000e+000  1.000000e+001
    endloop
  endfacet
  facet normal -9.749278e-001  0.000000e+000  2.225208e-001
    outer loop
      vertex -7.000000e+000 -8.200000e+000  1.000000e+001
      vertex -6.306782e+000 -7.000000e+000  1.303719e+001
      vertex -7.000000e+000 -7.000000e+000  1.000000e+001
    endloop
  endfacet
  facet normal  0.000000e+000 -1.000000e+000  0.000000e+000
    outer loop
      vertex  1.557647e+000  7.000000e+000  1.682450e+001
      vertex  6.306782e+000  7.000000e+000  1.303719e+001
      vertex  4.364429e+000  7.000000e+000  1.547282e+001
    endloop
  endfacet
  facet normal  0.000000e+000 -1.000000e+000  0.000000e+000
    outer loop
      vertex -7.000000e+000  7.000000e+000  1.500000e+000
      vertex -6.306782e+000  7.000000e+000  1.303719e+001
      vertex -7.000000e+000  7.000000e+000  1.000000e+001
    endloop
  endfacet
  facet normal  0.000000e+000 -1.000000e+000  0.000000e+000
    outer loop
      vertex  7.000000e+000  7.000000e+000  1.000000e+001
      vertex  6.306782e+000  7.000000e+000  1.303719e+001
      vertex  7.000000e+000  7.000000e+000  1.500000e+000
    endloop
  endfacet
  facet normal  0.000000e+000 -1.000000e+000  0.000000e+000
    outer loop
      vertex  7.000000e+000  7.000000e+000  1.500000e+000
      vertex  6.306782e+000  7.000000e+000  1.303719e+001
      vertex  1.557647e+000  7.000000e+000  1.682450e+001
    endloop
  endfacet
  facet normal  0.000000e+000 -1.000000e+000  -0.000000e+000
    outer loop
      vertex  7.000000e+000  7.000000e+000  1.500000e+000
      vertex  1.557647e+000  7.000000e+000  1.682450e+001
      vertex -7.000000e+000  7.000000e+000  1.500000e+000
    endloop
  endfacet
  facet normal  0.000000e+000 -1.000000e+000  0.000000e+000
    outer loop
      vertex -7.000000e+000  7.000000e+000  1.500000e+000
      vertex  1.557647e+000  7.000000e+000  1.682450e+001
      vertex -1.557647e+000  7.000000e+000  1.682450e+001
    endloop
  endfacet
  facet normal  0.000000e+000 -1.000000e+000  0.000000e+000
    outer loop
      vertex -7.000000e+000  7.000000e+000  1.500000e+000
      vertex -1.557647e+000  7.000000e+000  1.682450e+001
      vertex -6.306782e+000  7.000000e+000  1.303719e+001
    endloop
  endfacet
  facet normal  0.000000e+000 -1.000000e+000  0.000000e+000
    outer loop
      vertex -6.306782e+000  7.000000e+000  1.303719e+001
      vertex -1.557647e+000  7.000000e+000  1.682450e+001
      vertex -4.364429e+000  7.000000e+000  1.547282e+001
    endloop
  endfacet
  facet normal  9.749278e-001  0.000000e+000  2.225208e-001
    outer loop
      vertex  7.000000e+000  7.000000e+000  1.000000e+001
      vertex  7.000000e+000  8.200000e+000  1.000000e+001
      vertex  6.306782e+000  7.000000e+000  1.303719e+001
    endloop
  endfacet
  facet normal  9.749278e-001  -0.000000e+000  2.225208e-001
    outer loop
      vertex  6.306782e+000  7.000000e+000  1.303719e+001
      vertex  7.000000e+000  8.200000e+000  1.000000e+001
      vertex  6.306782e+000  8.200000e+000  1.303719e+001
    endloop
  endfacet
  facet normal  7.818314e-001  0.000000e+000  6.234899e-001
    outer loop
      vertex  6.306782e+000  7.000000e+000  1.303719e+001
      vertex  6.306782e+000  8.200000e+000  1.303719e+001
      vertex  4.364429e+000  7.000000e+000  1.547282e+001
    endloop
  endfacet
  facet normal  7.818314e-001  -0.000000e+000  6.234899e-001
    outer loop
      vertex  4.364429e+000  7.000000e+000  1.547282e+001
      vertex  6.306782e+000  8.200000e+000  1.303719e+001
      vertex  4.364429e+000  8.200000e+000  1.547282e+001
    endloop
  endfacet
  facet normal  4.338837e-001  0.000000e+000  9.009688e-001
    outer loop
      vertex  4.364429e+000  7.000000e+000  1.547282e+001
      vertex  4.364429e+000  8.200000e+000  1.547282e+001
      vertex  1.557647e+000  7.000000e+000  1.682450e+001
    endloop
  endfacet
  facet normal  4.338837e-001  -0.000000e+000  9.009688e-001
    outer loop
      vertex  1.557647e+000  7.000000e+000  1.682450e+001
      vertex  4.364429e+000  8.200000e+000  1.547282e+001
      vertex  1.557647e+000  8.200000e+000  1.682450e+001
    endloop
  endfacet
  facet normal  0.000000e+000  0.000000e+000  9.999999e-001
    outer loop
      vertex  1.557647e+000  7.000000e+000  1.682450e+001
      vertex  1.557647e+000  8.200000e+000  1.682450e+001
      vertex -1.557647e+000  7.000000e+000  1.682450e+001
    endloop
  endfacet
  facet normal  0.000000e+000  0.000000e+000  9.999999e-001
    outer loop
      vertex -1.557647e+000  7.000000e+000  1.682450e+001
      vertex  1.557647e+000  8.200000e+000  1.682450e+001
      vertex -1.557647e+000  8.200000e+000  1.682450e+001
    endloop
  endfacet
  facet normal -4.338837e-001  0.000000e+000  9.009688e-001
    outer loop
      vertex -1.557647e+000  7.000000e+000  1.682450e+001
      vertex -1.557647e+000  8.200000e+000  1.682450e+001
      vertex -4.364429e+000  7.000000e+000  1.547282e+001
    endloop
  endfacet
  facet normal -4.338837e-001  0.000000e+000  9.009688e-001
    outer loop
      vertex -4.364429e+000  7.000000e+000  1.547282e+001
      vertex -1.557647e+000  8.200000e+000  1.682450e+001
      vertex -4.364429e+000  8.200000e+000  1.547282e+001
    endloop
  endfacet
  facet normal -7.818314e-001  0.000000e+000  6.234899e-001
    outer loop
      vertex -4.364429e+000  7.000000e+000  1.547282e+001
      vertex -4.364429e+000  8.200000e+000  1.547282e+001
      vertex -6.306782e+000  7.000000e+000  1.303719e+001
    endloop
  endfacet
  facet normal -7.818314e-001  0.000000e+000  6.234899e-001
    outer loop
      vertex -6.306782e+000  7.000000e+000  1.303719e+001
      vertex -4.364429e+000  8.200000e+000  1.547282e+001
      vertex -6.306782e+000  8.200000e+000  1.303719e+001
    endloop
  endfacet
  facet normal -9.749278e-001  0.000000e+000  2.225208e-001
    outer loop
      vertex -6.306782e+000  7.000000e+000  1.303719e+001
      vertex -6.306782e+000  8.200000e+000  1.303719e+001
      vertex -7.000000e+000  7.000000e+000  1.000000e+001
    endloop
  endfacet
  facet normal -9.749278e-001  0.000000e+000  2.225208e-001
    outer loop
      vertex -7.000000e+000  7.000000e+000  1.000000e+001
      vertex -6.306782e+000  8.200000e+000  1.303719e+001
      vertex -7.000000e+000  8.200000e+000  1.000000e+001
    endloop
  endfacet
  facet normal -9.238794e-001 -3.826836e-001  -0.000000e+000
    outer loop
      vertex  3.855204e+000 -3.005204e+000  0.000000e+000
      vertex  3.606245e+000 -2.404163e+000  1.500000e+000
      vertex  3.606245e+000 -2.404163e+000  0.000000e+000
    endloop
  endfacet
  facet normal -3.826835e-001 -9.238795e-001  0.000000e+000
    outer loop
      vertex  3.606245e+000 -2.404163e+000  0.000000e+000
      vertex  3.606245e+000 -2.404163e+000  1.500000e+000
      vertex  3.005204e+000 -2.155204e+000  1.500000e+000
    endloop
  endfacet
  facet normal -3.826835e-001 -9.238795e-001  -0.000000e+000
    outer loop
      vertex  3.606245e+000 -2.404163e+000  0.000000e+000
      vertex  3.005204e+000 -2.155204e+000  1.500000e+000
      vertex  3.005204e+000 -2.155204e+000  0.000000e+000
    endloop
  endfacet
  facet normal -9.238794e-001 -3.826836e-001  0.000000e+000
    outer loop
      vertex  3.606245e+000 -2.404163e+000  1.500000e+000
      vertex  3.855204e+000 -3.005204e+000  0.000000e+000
      vertex  3.855204e+000 -3.005204e+000  1.500000e+000
    endloop
  endfacet
  facet normal -9.238795e-001  3.826835e-001  0.000000e+000
    outer loop
      vertex  3.855204e+000 -3.005204e+000  1.500000e+000
      vertex  3.855204e+000 -3.005204e+000  0.000000e+000
      vertex  3.606245e+000 -3.606245e+000  0.000000e+000
    endloop
  endfacet
  facet normal -9.238795e-001  3.826835e-001  0.000000e+000
    outer loop
      vertex  3.855204e+000 -3.005204e+000  1.500000e+000
      vertex  3.606245e+000 -3.606245e+000  0.000000e+000
      vertex  3.606245e+000 -3.606245e+000  1.500000e+000
    endloop
  endfacet
  facet normal -3.826835e-001  9.238795e-001  0.000000e+000
    outer loop
      vertex  3.606245e+000 -3.606245e+000  1.500000e+000
      vertex  3.606245e+000 -3.606245e+000  0.000000e+000
      vertex  3.005204e+000 -3.855204e+000  0.000000e+000
    endloop
  endfacet
  facet normal -3.826835e-001  9.238795e-001  0.000000e+000
    outer loop
      vertex  3.606245e+000 -3.606245e+000  1.500000e+000
      vertex  3.005204e+000 -3.855204e+000  0.000000e+000
      vertex  3.005204e+000 -3.855204e+000  1.500000e+000
    endloop
  endfacet
  facet normal  9.238795e-001  3.826835e-001  0.000000e+000
    outer loop
      vertex  2.155204e+000 -3.005204e+000  0.000000e+000
      vertex  2.404163e+000 -3.606245e+000  1.500000e+000
      vertex  2.404163e+000 -3.606245e+000  0.000000e+000
    endloop
  endfacet
  facet normal  3.826836e-001  9.238794e-001  -0.000000e+000
    outer loop
      vertex  2.404163e+000 -3.606245e+000  0.000000e+000
      vertex  2.404163e+000 -3.606245e+000  1.500000e+000
      vertex  3.005204e+000 -3.855204e+000  1.500000e+000
    endloop
  endfacet
  facet normal  3.826836e-001  9.238794e-001  0.000000e+000
    outer loop
      vertex  2.404163e+000 -3.606245e+000  0.000000e+000
      vertex  3.005204e+000 -3.855204e+000  1.500000e+000
      vertex  3.005204e+000 -3.855204e+000  0.000000e+000
    endloop
  endfacet
  facet normal  9.238795e-001  3.826835e-001  -0.000000e+000
    outer loop
      vertex  2.404163e+000 -3.606245e+000  1.500000e+000
      vertex  2.155204e+000 -3.005204e+000  0.000000e+000
      vertex  2.155204e+000 -3.005204e+000  1.500000e+000
    endloop
  endfacet
  facet normal  9.238794e-001 -3.826836e-001  0.000000e+000
    outer loop
      vertex  2.155204e+000 -3.005204e+000  1.500000e+000
      vertex  2.155204e+000 -3.005204e+000  0.000000e+000
      vertex  2.404163e+000 -2.404163e+000  0.000000e+000
    endloop
  endfacet
  facet normal  9.238794e-001 -3.826836e-001  0.000000e+000
    outer loop
      vertex  2.155204e+000 -3.005204e+000  1.500000e+000
      vertex  2.404163e+000 -2.404163e+000  0.000000e+000
      vertex  2.404163e+000 -2.404163e+000  1.500000e+000
    endloop
  endfacet
  facet normal  3.826836e-001 -9.238794e-001  0.000000e+000
    outer loop
      vertex  2.404163e+000 -2.404163e+000  1.500000e+000
      vertex  2.404163e+000 -2.404163e+000  0.000000e+000
      vertex  3.005204e+000 -2.155204e+000  0.000000e+000
    endloop
  endfacet
  facet normal  3.826836e-001 -9.238794e-001  0.000000e+000
    outer loop
      vertex  2.404163e+000 -2.404163e+000  1.500000e+000
      vertex  3.005204e+000 -2.155204e+000  0.000000e+000
      vertex  3.005204e+000 -2.155204e+000  1.500000e+000
    endloop
  endfacet
  facet normal -3.826836e-001  9.238794e-001  0.000000e+000
    outer loop
      vertex -3.005204e+000 -3.855204e+000  0.000000e+000
      vertex -2.404163e+000 -3.606245e+000  1.500000e+000
      vertex -2.404163e+000 -3.606245e+000  0.000000e+000
    endloop
  endfacet
  facet normal -9.238795e-001  3.826835e-001  0.000000e+000
    outer loop
      vertex -2.404163e+000 -3.606245e+000  0.000000e+000
      vertex -2.404163e+000 -3.606245e+000  1.500000e+000
      vertex -2.155204e+000 -3.005204e+000  1.500000e+000
    endloop
  endfacet
  facet normal -9.238795e-001  3.826835e-001  0.000000e+000
    outer loop
      vertex -2.404163e+000 -3.606245e+000  0.000000e+000
      vertex -2.155204e+000 -3.005204e+000  1.500000e+000
      vertex -2.155204e+000 -3.005204e+000  0.000000e+000
    endloop
  endfacet
  facet normal -3.826836e-001  9.238794e-001  0.000000e+000
    outer loop
      vertex -2.404163e+000 -3.606245e+000  1.500000e+000
      vertex -3.005204e+000 -3.855204e+000  0.000000e+000
      vertex -3.005204e+000 -3.855204e+000  1.500000e+000
    endloop
  endfacet
  facet normal  3.826835e-001  9.238795e-001  0.000000e+000
    outer loop
      vertex -3.005204e+000 -3.855204e+000  1.500000e+000
      vertex -3.005204e+000 -3.855204e+000  0.000000e+000
      vertex -3.606245e+000 -3.606245e+000  0.000000e+000
    endloop
  endfacet
  facet normal  3.826835e-001  9.238795e-001  -0.000000e+000
    outer loop
      vertex -3.005204e+000 -3.855204e+000  1.500000e+000
      vertex -3.606245e+000 -3.606245e+000  0.000000e+000
      vertex -3.606245e+000 -3.606245e+000  1.500000e+000
    endloop
  endfacet
  facet normal  9.238795e-001  3.826835e-001  0.000000e+000
    outer loop
      vertex -3.606245e+000 -3.606245e+000  1.500000e+000
      vertex -3.606245e+000 -3.606245e+000  0.000000e+000
      vertex -3.855204e+000 -3.005204e+000  0.000000e+000
    endloop
  endfacet
  facet normal  9.238795e-001  3.826835e-001  -0.000000e+000
    outer loop
      vertex -3.606245e+000 -3.606245e+000  1.500000e+000
      vertex -3.855204e+000 -3.005204e+000  0.000000e+000
      vertex -3.855204e+000 -3.005204e+000  1.500000e+000
    endloop
  endfacet
  facet normal  3.826835e-001 -9.238795e-001  0.000000e+000
    outer loop
      vertex -3.005204e+000 -2.155204e+000  0.000000e+000
      vertex -3.606245e+000 -2.404163e+000  1.500000e+000
      vertex -3.606245e+000 -2.404163e+000  0.000000e+000
    endloop
  endfacet
  facet normal  9.238794e-001 -3.826836e-001  0.000000e+000
    outer loop
      vertex -3.606245e+000 -2.404163e+000  0.000000e+000
      vertex -3.606245e+000 -2.404163e+000  1.500000e+000
      vertex -3.855204e+000 -3.005204e+000  1.500000e+000
    endloop
  endfacet
  facet normal  9.238794e-001 -3.826836e-001  0.000000e+000
    outer loop
      vertex -3.606245e+000 -2.404163e+000  0.000000e+000
      vertex -3.855204e+000 -3.005204e+000  1.500000e+000
      vertex -3.855204e+000 -3.005204e+000  0.000000e+000
    endloop
  endfacet
  facet normal  3.826835e-001 -9.238795e-001  0.000000e+000
    outer loop
      vertex -3.606245e+000 -2.404163e+000  1.500000e+000
      vertex -3.005204e+000 -2.155204e+000  0.000000e+000
      vertex -3.005204e+000 -2.155204e+000  1.500000e+000
    endloop
  endfacet
  facet normal -3.826836e-001 -9.238794e-001  -0.000000e+000
    outer loop
      vertex -3.005204e+000 -2.155204e+000  1.500000e+000
      vertex -3.005204e+000 -2.155204e+000  0.000000e+000
      vertex -2.404163e+000 -2.404163e+000  0.000000e+000
    endloop
  endfacet
  facet normal -3.826836e-001 -9.238794e-001  0.000000e+000
    outer loop
      vertex -3.005204e+000 -2.155204e+000  1.500000e+000
      vertex -2.404163e+000 -2.404163e+000  0.000000e+000
      vertex -2.404163e+000 -2.404163e+000  1.500000e+000
    endloop
  endfacet
  facet normal -9.238794e-001 -3.826836e-001  -0.000000e+000
    outer loop
      vertex -2.404163e+000 -2.404163e+000  1.500000e+000
      vertex -2.404163e+000 -2.404163e+000  0.000000e+000
      vertex -2.155204e+000 -3.005204e+000  0.000000e+000
    endloop
  endfacet
  facet normal -9.238794e-001 -3.826836e-001  0.000000e+000
    outer loop
      vertex -2.404163e+000 -2.404163e+000  1.500000e+000
      vertex -2.155204e+000 -3.005204e+000  0.000000e+000
      vertex -2.155204e+000 -3.005204e+000  1.500000e+000
    endloop
  endfacet
  facet normal  9.238794e-001  3.826836e-001  0.000000e+000
    outer loop
      vertex -3.855204e+000  3.005204e+000  0.000000e+000
      vertex -3.606245e+000  2.404163e+000  1.500000e+000
      vertex -3.606245e+000  2.404163e+000  0.000000e+000
    endloop
  endfacet
  facet normal  3.826835e-001  9.238795e-001  -0.000000e+000
    outer loop
      vertex -3.606245e+000  2.404163e+000  0.000000e+000
      vertex -3.606245e+000  2.404163e+000  1.500000e+000
      vertex -3.005204e+000  2.155204e+000  1.500000e+000
    endloop
  endfacet
  facet normal  3.826835e-001  9.238795e-001  0.000000e+000
    outer loop
      vertex -3.606245e+000  2.404163e+000  0.000000e+000
      vertex -3.005204e+000  2.155204e+000  1.500000e+000
      vertex -3.005204e+000  2.155204e+000  0.000000e+000
    endloop
  endfacet
  facet normal  9.238794e-001  3.826836e-001  -0.000000e+000
    outer loop
      vertex -3.606245e+000  2.404163e+000  1.500000e+000
      vertex -3.855204e+000  3.005204e+000  0.000000e+000
      vertex -3.855204e+000  3.005204e+000  1.500000e+000
    endloop
  endfacet
  facet normal  9.238795e-001 -3.826835e-001  0.000000e+000
    outer loop
      vertex -3.855204e+000  3.005204e+000  1.500000e+000
      vertex -3.855204e+000  3.005204e+000  0.000000e+000
      vertex -3.606245e+000  3.606245e+000  0.000000e+000
    endloop
  endfacet
  facet normal  9.238795e-001 -3.826835e-001  0.000000e+000
    outer loop
      vertex -3.855204e+000  3.005204e+000  1.500000e+000
      vertex -3.606245e+000  3.606245e+000  0.000000e+000
      vertex -3.606245e+000  3.606245e+000  1.500000e+000
    endloop
  endfacet
  facet normal  3.826835e-001 -9.238795e-001  0.000000e+000
    outer loop
      vertex -3.606245e+000  3.606245e+000  1.500000e+000
      vertex -3.606245e+000  3.606245e+000  0.000000e+000
      vertex -3.005204e+000  3.855204e+000  0.000000e+000
    endloop
  endfacet
  facet normal  3.826835e-001 -9.238795e-001  0.000000e+000
    outer loop
      vertex -3.606245e+000  3.606245e+000  1.500000e+000
      vertex -3.005204e+000  3.855204e+000  0.000000e+000
      vertex -3.005204e+000  3.855204e+000  1.500000e+000
    endloop
  endfacet
  facet normal -9.238795e-001 -3.826835e-001  -0.000000e+000
    outer loop
      vertex -2.155204e+000  3.005204e+000  0.000000e+000
      vertex -2.404163e+000  3.606245e+000  1.500000e+000
      vertex -2.404163e+000  3.606245e+000  0.000000e+000
    endloop
  endfacet
  facet normal -3.826836e-001 -9.238794e-001  0.000000e+000
    outer loop
      vertex -2.404163e+000  3.606245e+000  0.000000e+000
      vertex -2.404163e+000  3.606245e+000  1.500000e+000
      vertex -3.005204e+000  3.855204e+000  1.500000e+000
    endloop
  endfacet
  facet normal -3.826836e-001 -9.238794e-001  -0.000000e+000
    outer loop
      vertex -2.404163e+000  3.606245e+000  0.000000e+000
      vertex -3.005204e+000  3.855204e+000  1.500000e+000
      vertex -3.005204e+000  3.855204e+000  0.000000e+000
    endloop
  endfacet
  facet normal -9.238795e-001 -3.826835e-001  0.000000e+000
    outer loop
      vertex -2.404163e+000  3.606245e+000  1.500000e+000
      vertex -2.155204e+000  3.005204e+000  0.000000e+000
      vertex -2.155204e+000  3.005204e+000  1.500000e+000
    endloop
  endfacet
  facet normal -9.238794e-001  3.826836e-001  0.000000e+000
    outer loop
      vertex -2.155204e+000  3.005204e+000  1.500000e+000
      vertex -2.155204e+000  3.005204e+000  0.000000e+000
      vertex -2.404163e+000  2.404163e+000  0.000000e+000
    endloop
  endfacet
  facet normal -9.238794e-001  3.826836e-001  0.000000e+000
    outer loop
      vertex -2.155204e+000  3.005204e+000  1.500000e+000
      vertex -2.404163e+000  2.404163e+000  0.000000e+000
      vertex -2.404163e+000  2.404163e+000  1.500000e+000
    endloop
  endfacet
  facet normal -3.826836e-001  9.238794e-001  0.000000e+000
    outer loop
      vertex -2.404163e+000  2.404163e+000  1.500000e+000
      vertex -2.404163e+000  2.404163e+000  0.000000e+000
      vertex -3.005204e+000  2.155204e+000  0.000000e+000
    endloop
  endfacet
  facet normal -3.826836e-001  9.238794e-001  0.000000e+000
    outer loop
      vertex -2.404163e+000  2.404163e+000  1.500000e+000
      vertex -3.005204e+000  2.155204e+000  0.000000e+000
      vertex -3.005204e+000  2.155204e+000  1.500000e+000
    endloop
  endfacet
  facet normal  5.877852e-001 -8.090169e-001  0.000000e+000
    outer loop
      vertex -8.652476e-001  2.662958e+000  0.000000e+000
      vertex -2.265248e+000  1.645799e+000  1.500000e+000
      vertex -2.265248e+000  1.645799e+000  0.000000e+000
    endloop
  endfacet
  facet normal  9.510565e-001 -3.090170e-001  0.000000e+000
    outer loop
      vertex -2.265248e+000  1.645799e+000  0.000000e+000
      vertex -2.265248e+000  1.645799e+000  1.500000e+000
      vertex -2.800000e+000  3.428898e-016  1.500000e+000
    endloop
  endfacet
  facet normal  9.510565e-001 -3.090170e-001  0.000000e+000
    outer loop
      vertex -2.265248e+000  1.645799e+000  0.000000e+000
      vertex -2.800000e+000  3.428898e-016  1.500000e+000
      vertex -2.800000e+000  3.428898e-016  0.000000e+000
    endloop
  endfacet
  facet normal  5.877852e-001 -8.090169e-001  0.000000e+000
    outer loop
      vertex -2.265248e+000  1.645799e+000  1.500000e+000
      vertex -8.652476e-001  2.662958e+000  0.000000e+000
      vertex -8.652476e-001  2.662958e+000  1.500000e+000
    endloop
  endfacet
  facet normal  0.000000e+000 -1.000000e+000  0.000000e+000
    outer loop
      vertex -8.652476e-001  2.662958e+000  1.500000e+000
      vertex -8.652476e-001  2.662958e+000  0.000000e+000
      vertex  8.652476e-001  2.662958e+000  0.000000e+000
    endloop
  endfacet
  facet normal  0.000000e+000 -1.000000e+000  0.000000e+000
    outer loop
      vertex -8.652476e-001  2.662958e+000  1.500000e+000
      vertex  8.652476e-001  2.662958e+000  0.000000e+000
      vertex  8.652476e-001  2.662958e+000  1.500000e+000
    endloop
  endfacet
  facet normal -5.877852e-001 -8.090169e-001  -0.000000e+000
    outer loop
      vertex  8.652476e-001  2.662958e+000  1.500000e+000
      vertex  8.652476e-001  2.662958e+000  0.000000e+000
      vertex  2.265248e+000  1.645799e+000  0.000000e+000
    endloop
  endfacet
  facet normal -5.877852e-001 -8.090169e-001  0.000000e+000
    outer loop
      vertex  8.652476e-001  2.662958e+000  1.500000e+000
      vertex  2.265248e+000  1.645799e+000  0.000000e+000
      vertex  2.265248e+000  1.645799e+000  1.500000e+000
    endloop
  endfacet
  facet normal -9.510565e-001 -3.090170e-001  -0.000000e+000
    outer loop
      vertex  2.265248e+000  1.645799e+000  1.500000e+000
      vertex  2.265248e+000  1.645799e+000  0.000000e+000
      vertex  2.800000e+000  0.000000e+000  0.000000e+000
    endloop
  endfacet
  facet normal -9.510565e-001 -3.090170e-001  0.000000e+000
    outer loop
      vertex  2.265248e+000  1.645799e+000  1.500000e+000
      vertex  2.800000e+000  0.000000e+000  0.000000e+000
      vertex  2.800000e+000  0.000000e+000  1.500000e+000
    endloop
  endfacet
  facet normal -5.877852e-001  8.090169e-001  0.000000e+000
    outer loop
      vertex  8.652476e-001 -2.662958e+000  0.000000e+000
      vertex  2.265248e+000 -1.645799e+000  1.500000e+000
      vertex  2.265248e+000 -1.645799e+000  0.000000e+000
    endloop
  endfacet
  facet normal -9.510565e-001  3.090170e-001  0.000000e+000
    outer loop
      vertex  2.265248e+000 -1.645799e+000  0.000000e+000
      vertex  2.265248e+000 -1.645799e+000  1.500000e+000
      vertex  2.800000e+000  0.000000e+000  1.500000e+000
    endloop
  endfacet
  facet normal -9.510565e-001  3.090170e-001  0.000000e+000
    outer loop
      vertex  2.265248e+000 -1.645799e+000  0.000000e+000
      vertex  2.800000e+000  0.000000e+000  1.500000e+000
      vertex  2.800000e+000  0.000000e+000  0.000000e+000
    endloop
  endfacet
  facet normal -5.877852e-001  8.090169e-001  0.000000e+000
    outer loop
      vertex  2.265248e+000 -1.645799e+000  1.500000e+000
      vertex  8.652476e-001 -2.662958e+000  0.000000e+000
      vertex  8.652476e-001 -2.662958e+000  1.500000e+000
    endloop
  endfacet
  facet normal  0.000000e+000  1.000000e+000  0.000000e+000
    outer loop
      vertex  8.652476e-001 -2.662958e+000  1.500000e+000
      vertex  8.652476e-001 -2.662958e+000  0.000000e+000
      vertex -8.652476e-001 -2.662958e+000  0.000000e+000
    endloop
  endfacet
  facet normal  0.000000e+000  1.000000e+000  0.000000e+000
    outer loop
      vertex  8.652476e-001 -2.662958e+000  1.500000e+000
      vertex -8.652476e-001 -2.662958e+000  0.000000e+000
      vertex -8.652476e-001 -2.662958e+000  1.500000e+000
    endloop
  endfacet
  facet normal  5.877852e-001  8.090169e-001  0.000000e+000
    outer loop
      vertex -8.652476e-001 -2.662958e+000  1.500000e+000
      vertex -8.652476e-001 -2.662958e+000  0.000000e+000
      vertex -2.265248e+000 -1.645799e+000  0.000000e+000
    endloop
  endfacet
  facet normal  5.877852e-001  8.090169e-001  -0.000000e+000
    outer loop
      vertex -8.652476e-001 -2.662958e+000  1.500000e+000
      vertex -2.265248e+000 -1.645799e+000  0.000000e+000
      vertex -2.265248e+000 -1.645799e+000  1.500000e+000
    endloop
  endfacet
  facet normal  9.510565e-001  3.090170e-001  0.000000e+000
    outer loop
      vertex -2.265248e+000 -1.645799e+000  1.500000e+000
      vertex -2.265248e+000 -1.645799e+000  0.000000e+000
      vertex -2.800000e+000  3.428898e-016  0.000000e+000
    endloop
  endfacet
  facet normal  9.510565e-001  3.090170e-001  -0.000000e+000
    outer loop
      vertex -2.265248e+000 -1.645799e+000  1.500000e+000
      vertex -2.800000e+000  3.428898e-016  0.000000e+000
      vertex -2.800000e+000  3.428898e-016  1.500000e+000
    endloop
  endfacet
  facet normal  3.826836e-001 -9.238794e-001  0.000000e+000
    outer loop
      vertex  3.005204e+000  3.855204e+000  0.000000e+000
      vertex  2.404163e+000  3.606245e+000  1.500000e+000
      vertex  2.404163e+000  3.606245e+000  0.000000e+000
    endloop
  endfacet
  facet normal  9.238795e-001 -3.826835e-001  0.000000e+000
    outer loop
      vertex  2.404163e+000  3.606245e+000  0.000000e+000
      vertex  2.404163e+000  3.606245e+000  1.500000e+000
      vertex  2.155204e+000  3.005204e+000  1.500000e+000
    endloop
  endfacet
  facet normal  9.238795e-001 -3.826835e-001  0.000000e+000
    outer loop
      vertex  2.404163e+000  3.606245e+000  0.000000e+000
      vertex  2.155204e+000  3.005204e+000  1.500000e+000
      vertex  2.155204e+000  3.005204e+000  0.000000e+000
    endloop
  endfacet
  facet normal  3.826836e-001 -9.238794e-001  0.000000e+000
    outer loop
      vertex  2.404163e+000  3.606245e+000  1.500000e+000
      vertex  3.005204e+000  3.855204e+000  0.000000e+000
      vertex  3.005204e+000  3.855204e+000  1.500000e+000
    endloop
  endfacet
  facet normal -3.826835e-001 -9.238795e-001  -0.000000e+000
    outer loop
      vertex  3.005204e+000  3.855204e+000  1.500000e+000
      vertex  3.005204e+000  3.855204e+000  0.000000e+000
      vertex  3.606245e+000  3.606245e+000  0.000000e+000
    endloop
  endfacet
  facet normal -3.826835e-001 -9.238795e-001  0.000000e+000
    outer loop
      vertex  3.005204e+000  3.855204e+000  1.500000e+000
      vertex  3.606245e+000  3.606245e+000  0.000000e+000
      vertex  3.606245e+000  3.606245e+000  1.500000e+000
    endloop
  endfacet
  facet normal -9.238795e-001 -3.826835e-001  -0.000000e+000
    outer loop
      vertex  3.606245e+000  3.606245e+000  1.500000e+000
      vertex  3.606245e+000  3.606245e+000  0.000000e+000
      vertex  3.855204e+000  3.005204e+000  0.000000e+000
    endloop
  endfacet
  facet normal -9.238795e-001 -3.826835e-001  0.000000e+000
    outer loop
      vertex  3.606245e+000  3.606245e+000  1.500000e+000
      vertex  3.855204e+000  3.005204e+000  0.000000e+000
      vertex  3.855204e+000  3.005204e+000  1.500000e+000
    endloop
  endfacet
  facet normal -3.826835e-001  9.238795e-001  0.000000e+000
    outer loop
      vertex  3.005204e+000  2.155204e+000  0.000000e+000
      vertex  3.606245e+000  2.404163e+000  1.500000e+000
      vertex  3.606245e+000  2.404163e+000  0.000000e+000
    endloop
  endfacet
  facet normal -9.238794e-001  3.826836e-001  0.000000e+000
    outer loop
      vertex  3.606245e+000  2.404163e+000  0.000000e+000
      vertex  3.606245e+000  2.404163e+000  1.500000e+000
      vertex  3.855204e+000  3.005204e+000  1.500000e+000
    endloop
  endfacet
  facet normal -9.238794e-001  3.826836e-001  0.000000e+000
    outer loop
      vertex  3.606245e+000  2.404163e+000  0.000000e+000
      vertex  3.855204e+000  3.005204e+000  1.500000e+000
      vertex  3.855204e+000  3.005204e+000  0.000000e+000
    endloop
  endfacet
  facet normal -3.826835e-001  9.238795e-001  0.000000e+000
    outer loop
      vertex  3.606245e+000  2.404163e+000  1.500000e+000
      vertex  3.005204e+000  2.155204e+000  0.000000e+000
      vertex  3.005204e+000  2.155204e+000  1.500000e+000
    endloop
  endfacet
  facet normal  3.826836e-001  9.238794e-001  0.000000e+000
    outer loop
      vertex  3.005204e+000  2.155204e+000  1.500000e+000
      vertex  3.005204e+000  2.155204e+000  0.000000e+000
      vertex  2.404163e+000  2.404163e+000  0.000000e+000
    endloop
  endfacet
  facet normal  3.826836e-001  9.238794e-001  -0.000000e+000
    outer loop
      vertex  3.005204e+000  2.155204e+000  1.500000e+000
      vertex  2.404163e+000  2.404163e+000  0.000000e+000
      vertex  2.404163e+000  2.404163e+000  1.500000e+000
    endloop
  endfacet
  facet normal  9.238794e-001  3.826836e-001  0.000000e+000
    outer loop
      vertex  2.404163e+000  2.404163e+000  1.500000e+000
      vertex  2.404163e+000  2.404163e+000  0.000000e+000
      vertex  2.155204e+000  3.005204e+000  0.000000e+000
    endloop
  endfacet
  facet normal  9.238794e-001  3.826836e-001  -0.000000e+000
    outer loop
      vertex  2.404163e+000  2.404163e+000  1.500000e+000
      vertex  2.155204e+000  3.005204e+000  0.000000e+000
      vertex  2.155204e+000  3.005204e+000  1.500000e+000
    endloop
  endfacet
endsolid CATIA STL
