solid CATIA STL
  facet normal  -0.000000e+000  -0.000000e+000 -1.000000e+000
    outer loop
      vertex -5.000000e+000  1.500000e+001 -2.426890e-015
      vertex  7.000000e+000  1.500000e+001 -2.426890e-015
      vertex  7.000000e+000  0.000000e+000 -2.426890e-015
    endloop
  endfacet
  facet normal -4.853781e-016 -3.883025e-016 -1.000000e+000
    outer loop
      vertex -5.000000e+000  1.500000e+001 -2.426890e-015
      vertex  7.000000e+000  0.000000e+000 -2.426890e-015
      vertex  2.000000e+000  1.421085e-014  0.000000e+000
    endloop
  endfacet
  facet normal  -0.000000e+000 -1.617927e-016 -1.000000e+000
    outer loop
      vertex -5.000000e+000  1.500000e+001 -2.426890e-015
      vertex  2.000000e+000  1.421085e-014  0.000000e+000
      vertex  0.000000e+000  1.421085e-014  0.000000e+000
    endloop
  endfacet
  facet normal  4.853781e-016  0.000000e+000 -1.000000e+000
    outer loop
      vertex -5.000000e+000  1.500000e+001 -2.426890e-015
      vertex  0.000000e+000  1.421085e-014  0.000000e+000
      vertex -5.000000e+000 -1.776357e-015 -2.426890e-015
    endloop
  endfacet
  facet normal  0.000000e+000 -1.000000e+000 -1.421085e-014
    outer loop
      vertex  2.000000e+000  0.000000e+000  1.000000e+000
      vertex  2.000000e+000  1.421085e-014  0.000000e+000
      vertex  7.000000e+000  0.000000e+000  1.000000e+000
    endloop
  endfacet
  facet normal -2.842171e-015 -1.000000e+000  -0.000000e+000
    outer loop
      vertex  7.000000e+000  0.000000e+000  1.000000e+000
      vertex  2.000000e+000  1.421085e-014  0.000000e+000
      vertex  7.000000e+000  0.000000e+000 -2.426890e-015
    endloop
  endfacet
  facet normal  0.000000e+000  1.000000e+000  -0.000000e+000
    outer loop
      vertex  7.000000e+000  1.500000e+001  1.000000e+000
      vertex  7.000000e+000  1.500000e+001 -2.426890e-015
      vertex -5.000000e+000  1.500000e+001  1.000000e+000
    endloop
  endfacet
  facet normal  0.000000e+000  1.000000e+000  0.000000e+000
    outer loop
      vertex -5.000000e+000  1.500000e+001  1.000000e+000
      vertex  7.000000e+000  1.500000e+001 -2.426890e-015
      vertex -5.000000e+000  1.500000e+001 -2.426890e-015
    endloop
  endfacet
  facet normal  3.552714e-016 -1.000000e+000  0.000000e+000
    outer loop
      vertex -5.000000e+000 -1.776357e-015  1.000000e+000
      vertex -5.000000e+000 -1.776357e-015 -2.426890e-015
      vertex  8.881784e-016  0.000000e+000  1.000000e+000
    endloop
  endfacet
  facet normal  3.197442e-015 -1.000000e+000 -1.421085e-014
    outer loop
      vertex  8.881784e-016  0.000000e+000  1.000000e+000
      vertex -5.000000e+000 -1.776357e-015 -2.426890e-015
      vertex  0.000000e+000  1.421085e-014  0.000000e+000
    endloop
  endfacet
  facet normal  -0.000000e+000  6.121851e-001  7.907146e-001
    outer loop
      vertex  2.000000e+000  1.370837e+001  1.000000e+000
      vertex  0.000000e+000  1.370837e+001  1.000000e+000
      vertex  2.000000e+000 -4.695374e-001  1.197679e+001
    endloop
  endfacet
  facet normal  0.000000e+000  6.121851e-001  7.907146e-001
    outer loop
      vertex  2.000000e+000 -4.695374e-001  1.197679e+001
      vertex  0.000000e+000  1.370837e+001  1.000000e+000
      vertex  0.000000e+000 -4.695374e-001  1.197679e+001
    endloop
  endfacet
  facet normal -9.999999e-001  0.000000e+000  0.000000e+000
    outer loop
      vertex  0.000000e+000 -4.695374e-001  1.197679e+001
      vertex  0.000000e+000  1.370837e+001  1.000000e+000
      vertex  0.000000e+000 -1.469670e+000  1.053033e+001
    endloop
  endfacet
  facet normal -9.999999e-001  0.000000e+000  0.000000e+000
    outer loop
      vertex  0.000000e+000 -4.695374e-001  1.197679e+001
      vertex  0.000000e+000 -1.469670e+000  1.053033e+001
      vertex  0.000000e+000 -2.000000e+000  1.075000e+001
    endloop
  endfacet
  facet normal -1.000000e+000  0.000000e+000  0.000000e+000
    outer loop
      vertex  0.000000e+000 -4.695374e-001  1.197679e+001
      vertex  0.000000e+000 -2.000000e+000  1.075000e+001
      vertex  0.000000e+000 -3.569104e+000  1.194626e+001
    endloop
  endfacet
  facet normal -1.000000e+000  0.000000e+000  0.000000e+000
    outer loop
      vertex  0.000000e+000 -4.695374e-001  1.197679e+001
      vertex  0.000000e+000 -3.569104e+000  1.194626e+001
      vertex  0.000000e+000 -2.024624e+000  1.249988e+001
    endloop
  endfacet
  facet normal -1.000000e+000  0.000000e+000  0.000000e+000
    outer loop
      vertex  0.000000e+000 -4.256457e+000  8.923709e+000
      vertex  0.000000e+000 -4.437761e+000  1.055437e+001
      vertex  0.000000e+000 -2.530330e+000  1.053033e+001
    endloop
  endfacet
  facet normal -1.000000e+000  0.000000e+000  0.000000e+000
    outer loop
      vertex  0.000000e+000 -4.256457e+000  8.923709e+000
      vertex  0.000000e+000 -2.530330e+000  1.053033e+001
      vertex  0.000000e+000 -2.750000e+000  1.000000e+001
    endloop
  endfacet
  facet normal -1.000000e+000  0.000000e+000  -0.000000e+000
    outer loop
      vertex  0.000000e+000 -4.256457e+000  8.923709e+000
      vertex  0.000000e+000 -2.750000e+000  1.000000e+001
      vertex  0.000000e+000 -2.530330e+000  9.469670e+000
    endloop
  endfacet
  facet normal -1.000000e+000  0.000000e+000  -0.000000e+000
    outer loop
      vertex  0.000000e+000 -4.256457e+000  8.923709e+000
      vertex  0.000000e+000 -2.530330e+000  9.469670e+000
      vertex  0.000000e+000 -2.000000e+000  9.250000e+000
    endloop
  endfacet
  facet normal -9.999999e-001  1.504045e-017 -1.040118e-016
    outer loop
      vertex  0.000000e+000 -4.256457e+000  8.923709e+000
      vertex  0.000000e+000 -2.000000e+000  9.250000e+000
      vertex  8.881784e-016  0.000000e+000  1.000000e+000
    endloop
  endfacet
  facet normal -1.000000e+000  1.862076e-015  8.881784e-016
    outer loop
      vertex  0.000000e+000 -4.256457e+000  8.923709e+000
      vertex  8.881784e-016  0.000000e+000  1.000000e+000
      vertex  0.000000e+000  1.421085e-014  0.000000e+000
    endloop
  endfacet
  facet normal -1.000000e+000 -6.479095e-017 -1.233649e-016
    outer loop
      vertex  0.000000e+000  1.370837e+001  1.000000e+000
      vertex  8.881784e-016  0.000000e+000  1.000000e+000
      vertex  0.000000e+000 -2.000000e+000  9.250000e+000
    endloop
  endfacet
  facet normal -1.000000e+000  0.000000e+000  0.000000e+000
    outer loop
      vertex  0.000000e+000  1.370837e+001  1.000000e+000
      vertex  0.000000e+000 -2.000000e+000  9.250000e+000
      vertex  0.000000e+000 -1.469670e+000  9.469670e+000
    endloop
  endfacet
  facet normal -1.000000e+000  0.000000e+000  0.000000e+000
    outer loop
      vertex  0.000000e+000  1.370837e+001  1.000000e+000
      vertex  0.000000e+000 -1.469670e+000  9.469670e+000
      vertex  0.000000e+000 -1.250000e+000  1.000000e+001
    endloop
  endfacet
  facet normal -1.000000e+000  0.000000e+000  0.000000e+000
    outer loop
      vertex  0.000000e+000  1.370837e+001  1.000000e+000
      vertex  0.000000e+000 -1.250000e+000  1.000000e+001
      vertex  0.000000e+000 -1.469670e+000  1.053033e+001
    endloop
  endfacet
  facet normal -1.000000e+000  0.000000e+000  0.000000e+000
    outer loop
      vertex  0.000000e+000 -2.530330e+000  1.053033e+001
      vertex  0.000000e+000 -4.437761e+000  1.055437e+001
      vertex  0.000000e+000 -2.000000e+000  1.075000e+001
    endloop
  endfacet
  facet normal -9.999999e-001  -0.000000e+000  0.000000e+000
    outer loop
      vertex  0.000000e+000 -2.000000e+000  1.075000e+001
      vertex  0.000000e+000 -4.437761e+000  1.055437e+001
      vertex  0.000000e+000 -3.569104e+000  1.194626e+001
    endloop
  endfacet
  facet normal  1.000000e+000  0.000000e+000  0.000000e+000
    outer loop
      vertex  2.000000e+000 -4.695374e-001  1.197679e+001
      vertex  2.000000e+000 -2.024624e+000  1.249988e+001
      vertex  2.000000e+000 -3.569104e+000  1.194626e+001
    endloop
  endfacet
  facet normal  1.000000e+000  -0.000000e+000  0.000000e+000
    outer loop
      vertex  2.000000e+000 -4.695374e-001  1.197679e+001
      vertex  2.000000e+000 -3.569104e+000  1.194626e+001
      vertex  2.000000e+000 -2.000000e+000  1.075000e+001
    endloop
  endfacet
  facet normal  1.000000e+000  -0.000000e+000  0.000000e+000
    outer loop
      vertex  2.000000e+000 -4.695374e-001  1.197679e+001
      vertex  2.000000e+000 -2.000000e+000  1.075000e+001
      vertex  2.000000e+000 -1.469670e+000  1.053033e+001
    endloop
  endfacet
  facet normal  9.999999e-001  -0.000000e+000  0.000000e+000
    outer loop
      vertex  2.000000e+000 -4.695374e-001  1.197679e+001
      vertex  2.000000e+000 -1.469670e+000  1.053033e+001
      vertex  2.000000e+000  1.370837e+001  1.000000e+000
    endloop
  endfacet
  facet normal  1.000000e+000  0.000000e+000  0.000000e+000
    outer loop
      vertex  2.000000e+000 -4.256457e+000  8.923709e+000
      vertex  2.000000e+000  1.421085e-014  0.000000e+000
      vertex  2.000000e+000  0.000000e+000  1.000000e+000
    endloop
  endfacet
  facet normal  9.999999e-001  0.000000e+000  0.000000e+000
    outer loop
      vertex  2.000000e+000 -4.256457e+000  8.923709e+000
      vertex  2.000000e+000  0.000000e+000  1.000000e+000
      vertex  2.000000e+000 -2.000000e+000  9.250000e+000
    endloop
  endfacet
  facet normal  1.000000e+000  0.000000e+000  0.000000e+000
    outer loop
      vertex  2.000000e+000 -4.256457e+000  8.923709e+000
      vertex  2.000000e+000 -2.000000e+000  9.250000e+000
      vertex  2.000000e+000 -2.530330e+000  9.469670e+000
    endloop
  endfacet
  facet normal  1.000000e+000  0.000000e+000  0.000000e+000
    outer loop
      vertex  2.000000e+000 -4.256457e+000  8.923709e+000
      vertex  2.000000e+000 -2.530330e+000  9.469670e+000
      vertex  2.000000e+000 -2.750000e+000  1.000000e+001
    endloop
  endfacet
  facet normal  1.000000e+000  0.000000e+000  -0.000000e+000
    outer loop
      vertex  2.000000e+000 -4.256457e+000  8.923709e+000
      vertex  2.000000e+000 -2.750000e+000  1.000000e+001
      vertex  2.000000e+000 -2.530330e+000  1.053033e+001
    endloop
  endfacet
  facet normal  1.000000e+000  0.000000e+000  0.000000e+000
    outer loop
      vertex  2.000000e+000 -4.256457e+000  8.923709e+000
      vertex  2.000000e+000 -2.530330e+000  1.053033e+001
      vertex  2.000000e+000 -4.437761e+000  1.055437e+001
    endloop
  endfacet
  facet normal  1.000000e+000  0.000000e+000  0.000000e+000
    outer loop
      vertex  2.000000e+000  1.370837e+001  1.000000e+000
      vertex  2.000000e+000 -1.469670e+000  1.053033e+001
      vertex  2.000000e+000 -1.250000e+000  1.000000e+001
    endloop
  endfacet
  facet normal  1.000000e+000  0.000000e+000  0.000000e+000
    outer loop
      vertex  2.000000e+000  1.370837e+001  1.000000e+000
      vertex  2.000000e+000 -1.250000e+000  1.000000e+001
      vertex  2.000000e+000 -1.469670e+000  9.469670e+000
    endloop
  endfacet
  facet normal  9.999999e-001  0.000000e+000  0.000000e+000
    outer loop
      vertex  2.000000e+000  1.370837e+001  1.000000e+000
      vertex  2.000000e+000 -1.469670e+000  9.469670e+000
      vertex  2.000000e+000 -2.000000e+000  9.250000e+000
    endloop
  endfacet
  facet normal  1.000000e+000  0.000000e+000  0.000000e+000
    outer loop
      vertex  2.000000e+000  1.370837e+001  1.000000e+000
      vertex  2.000000e+000 -2.000000e+000  9.250000e+000
      vertex  2.000000e+000  0.000000e+000  1.000000e+000
    endloop
  endfacet
  facet normal  1.000000e+000  0.000000e+000  0.000000e+000
    outer loop
      vertex  2.000000e+000 -2.530330e+000  1.053033e+001
      vertex  2.000000e+000 -2.000000e+000  1.075000e+001
      vertex  2.000000e+000 -4.437761e+000  1.055437e+001
    endloop
  endfacet
  facet normal  9.999999e-001  0.000000e+000  0.000000e+000
    outer loop
      vertex  2.000000e+000 -4.437761e+000  1.055437e+001
      vertex  2.000000e+000 -2.000000e+000  1.075000e+001
      vertex  2.000000e+000 -3.569104e+000  1.194626e+001
    endloop
  endfacet
  facet normal  0.000000e+000  0.000000e+000  1.000000e+000
    outer loop
      vertex  7.000000e+000  1.500000e+001  1.000000e+000
      vertex  2.000000e+000  0.000000e+000  1.000000e+000
      vertex  7.000000e+000  0.000000e+000  1.000000e+000
    endloop
  endfacet
  facet normal  0.000000e+000  0.000000e+000  1.000000e+000
    outer loop
      vertex  2.000000e+000  0.000000e+000  1.000000e+000
      vertex  7.000000e+000  1.500000e+001  1.000000e+000
      vertex  2.000000e+000  1.370837e+001  1.000000e+000
    endloop
  endfacet
  facet normal  0.000000e+000  -0.000000e+000  1.000000e+000
    outer loop
      vertex  2.000000e+000  1.370837e+001  1.000000e+000
      vertex  7.000000e+000  1.500000e+001  1.000000e+000
      vertex -5.000000e+000  1.500000e+001  1.000000e+000
    endloop
  endfacet
  facet normal  0.000000e+000  0.000000e+000  1.000000e+000
    outer loop
      vertex  2.000000e+000  1.370837e+001  1.000000e+000
      vertex -5.000000e+000  1.500000e+001  1.000000e+000
      vertex  0.000000e+000  1.370837e+001  1.000000e+000
    endloop
  endfacet
  facet normal  0.000000e+000  0.000000e+000  1.000000e+000
    outer loop
      vertex  0.000000e+000  1.370837e+001  1.000000e+000
      vertex -5.000000e+000  1.500000e+001  1.000000e+000
      vertex -5.000000e+000 -1.776357e-015  1.000000e+000
    endloop
  endfacet
  facet normal  0.000000e+000  0.000000e+000  1.000000e+000
    outer loop
      vertex  0.000000e+000  1.370837e+001  1.000000e+000
      vertex -5.000000e+000 -1.776357e-015  1.000000e+000
      vertex  8.881784e-016  0.000000e+000  1.000000e+000
    endloop
  endfacet
  facet normal  0.000000e+000 -9.025828e-001 -4.305166e-001
    outer loop
      vertex  2.000000e+000  1.421085e-014  0.000000e+000
      vertex  2.000000e+000 -4.256457e+000  8.923709e+000
      vertex  0.000000e+000  1.421085e-014  0.000000e+000
    endloop
  endfacet
  facet normal  0.000000e+000 -9.025828e-001 -4.305166e-001
    outer loop
      vertex  0.000000e+000  1.421085e-014  0.000000e+000
      vertex  2.000000e+000 -4.256457e+000  8.923709e+000
      vertex  0.000000e+000 -4.256457e+000  8.923709e+000
    endloop
  endfacet
  facet normal  1.000000e+000  -0.000000e+000  0.000000e+000
    outer loop
      vertex  7.000000e+000  1.500000e+001  1.000000e+000
      vertex  7.000000e+000  0.000000e+000  1.000000e+000
      vertex  7.000000e+000  1.500000e+001 -2.426890e-015
    endloop
  endfacet
  facet normal  1.000000e+000  0.000000e+000  0.000000e+000
    outer loop
      vertex  7.000000e+000  1.500000e+001 -2.426890e-015
      vertex  7.000000e+000  0.000000e+000  1.000000e+000
      vertex  7.000000e+000  0.000000e+000 -2.426890e-015
    endloop
  endfacet
  facet normal -1.000000e+000  -0.000000e+000  0.000000e+000
    outer loop
      vertex -5.000000e+000 -1.776357e-015  1.000000e+000
      vertex -5.000000e+000  1.500000e+001  1.000000e+000
      vertex -5.000000e+000 -1.776357e-015 -2.426890e-015
    endloop
  endfacet
  facet normal -1.000000e+000  0.000000e+000  0.000000e+000
    outer loop
      vertex -5.000000e+000 -1.776357e-015 -2.426890e-015
      vertex -5.000000e+000  1.500000e+001  1.000000e+000
      vertex -5.000000e+000  1.500000e+001 -2.426890e-015
    endloop
  endfacet
  facet normal  0.000000e+000  3.826839e-001 -9.238793e-001
    outer loop
      vertex  0.000000e+000 -2.000000e+000  1.075000e+001
      vertex  2.000000e+000 -2.530330e+000  1.053033e+001
      vertex  0.000000e+000 -2.530330e+000  1.053033e+001
    endloop
  endfacet
  facet normal  0.000000e+000  9.238796e-001 -3.826835e-001
    outer loop
      vertex  0.000000e+000 -2.530330e+000  1.053033e+001
      vertex  2.000000e+000 -2.530330e+000  1.053033e+001
      vertex  2.000000e+000 -2.750000e+000  1.000000e+001
    endloop
  endfacet
  facet normal  0.000000e+000  9.238796e-001 -3.826835e-001
    outer loop
      vertex  0.000000e+000 -2.530330e+000  1.053033e+001
      vertex  2.000000e+000 -2.750000e+000  1.000000e+001
      vertex  0.000000e+000 -2.750000e+000  1.000000e+001
    endloop
  endfacet
  facet normal  0.000000e+000  3.826839e-001 -9.238793e-001
    outer loop
      vertex  2.000000e+000 -2.530330e+000  1.053033e+001
      vertex  0.000000e+000 -2.000000e+000  1.075000e+001
      vertex  2.000000e+000 -2.000000e+000  1.075000e+001
    endloop
  endfacet
  facet normal  -0.000000e+000 -3.826840e-001 -9.238793e-001
    outer loop
      vertex  2.000000e+000 -2.000000e+000  1.075000e+001
      vertex  0.000000e+000 -2.000000e+000  1.075000e+001
      vertex  0.000000e+000 -1.469670e+000  1.053033e+001
    endloop
  endfacet
  facet normal  0.000000e+000 -3.826840e-001 -9.238793e-001
    outer loop
      vertex  2.000000e+000 -2.000000e+000  1.075000e+001
      vertex  0.000000e+000 -1.469670e+000  1.053033e+001
      vertex  2.000000e+000 -1.469670e+000  1.053033e+001
    endloop
  endfacet
  facet normal  -0.000000e+000 -9.238794e-001 -3.826837e-001
    outer loop
      vertex  2.000000e+000 -1.469670e+000  1.053033e+001
      vertex  0.000000e+000 -1.469670e+000  1.053033e+001
      vertex  0.000000e+000 -1.250000e+000  1.000000e+001
    endloop
  endfacet
  facet normal  0.000000e+000 -9.238794e-001 -3.826837e-001
    outer loop
      vertex  2.000000e+000 -1.469670e+000  1.053033e+001
      vertex  0.000000e+000 -1.250000e+000  1.000000e+001
      vertex  2.000000e+000 -1.250000e+000  1.000000e+001
    endloop
  endfacet
  facet normal  0.000000e+000 -3.826840e-001  9.238793e-001
    outer loop
      vertex  0.000000e+000 -2.000000e+000  9.250000e+000
      vertex  2.000000e+000 -1.469670e+000  9.469670e+000
      vertex  0.000000e+000 -1.469670e+000  9.469670e+000
    endloop
  endfacet
  facet normal  0.000000e+000 -9.238794e-001  3.826837e-001
    outer loop
      vertex  0.000000e+000 -1.469670e+000  9.469670e+000
      vertex  2.000000e+000 -1.469670e+000  9.469670e+000
      vertex  2.000000e+000 -1.250000e+000  1.000000e+001
    endloop
  endfacet
  facet normal  0.000000e+000 -9.238794e-001  3.826837e-001
    outer loop
      vertex  0.000000e+000 -1.469670e+000  9.469670e+000
      vertex  2.000000e+000 -1.250000e+000  1.000000e+001
      vertex  0.000000e+000 -1.250000e+000  1.000000e+001
    endloop
  endfacet
  facet normal  0.000000e+000 -3.826840e-001  9.238793e-001
    outer loop
      vertex  2.000000e+000 -1.469670e+000  9.469670e+000
      vertex  0.000000e+000 -2.000000e+000  9.250000e+000
      vertex  2.000000e+000 -2.000000e+000  9.250000e+000
    endloop
  endfacet
  facet normal  0.000000e+000  3.826839e-001  9.238793e-001
    outer loop
      vertex  2.000000e+000 -2.000000e+000  9.250000e+000
      vertex  0.000000e+000 -2.000000e+000  9.250000e+000
      vertex  0.000000e+000 -2.530330e+000  9.469670e+000
    endloop
  endfacet
  facet normal  -0.000000e+000  3.826839e-001  9.238793e-001
    outer loop
      vertex  2.000000e+000 -2.000000e+000  9.250000e+000
      vertex  0.000000e+000 -2.530330e+000  9.469670e+000
      vertex  2.000000e+000 -2.530330e+000  9.469670e+000
    endloop
  endfacet
  facet normal  0.000000e+000  9.238796e-001  3.826835e-001
    outer loop
      vertex  2.000000e+000 -2.530330e+000  9.469670e+000
      vertex  0.000000e+000 -2.530330e+000  9.469670e+000
      vertex  0.000000e+000 -2.750000e+000  1.000000e+001
    endloop
  endfacet
  facet normal  -0.000000e+000  9.238796e-001  3.826835e-001
    outer loop
      vertex  2.000000e+000 -2.530330e+000  9.469670e+000
      vertex  0.000000e+000 -2.750000e+000  1.000000e+001
      vertex  2.000000e+000 -2.750000e+000  1.000000e+001
    endloop
  endfacet
  facet normal  -0.000000e+000 -9.938757e-001 -1.105036e-001
    outer loop
      vertex  0.000000e+000 -4.256457e+000  8.923709e+000
      vertex  2.000000e+000 -4.256457e+000  8.923709e+000
      vertex  0.000000e+000 -4.437761e+000  1.055437e+001
    endloop
  endfacet
  facet normal  0.000000e+000 -9.938757e-001 -1.105036e-001
    outer loop
      vertex  0.000000e+000 -4.437761e+000  1.055437e+001
      vertex  2.000000e+000 -4.256457e+000  8.923709e+000
      vertex  2.000000e+000 -4.437761e+000  1.055437e+001
    endloop
  endfacet
  facet normal  0.000000e+000 -8.483471e-001  5.294406e-001
    outer loop
      vertex  0.000000e+000 -4.437761e+000  1.055437e+001
      vertex  2.000000e+000 -4.437761e+000  1.055437e+001
      vertex  0.000000e+000 -3.569104e+000  1.194626e+001
    endloop
  endfacet
  facet normal  0.000000e+000 -8.483471e-001  5.294406e-001
    outer loop
      vertex  0.000000e+000 -3.569104e+000  1.194626e+001
      vertex  2.000000e+000 -4.437761e+000  1.055437e+001
      vertex  2.000000e+000 -3.569104e+000  1.194626e+001
    endloop
  endfacet
  facet normal  0.000000e+000 -3.374297e-001  9.413508e-001
    outer loop
      vertex  0.000000e+000 -3.569104e+000  1.194626e+001
      vertex  2.000000e+000 -3.569104e+000  1.194626e+001
      vertex  0.000000e+000 -2.024624e+000  1.249988e+001
    endloop
  endfacet
  facet normal  0.000000e+000 -3.374297e-001  9.413508e-001
    outer loop
      vertex  0.000000e+000 -2.024624e+000  1.249988e+001
      vertex  2.000000e+000 -3.569104e+000  1.194626e+001
      vertex  2.000000e+000 -2.024624e+000  1.249988e+001
    endloop
  endfacet
  facet normal  0.000000e+000  3.188213e-001  9.478149e-001
    outer loop
      vertex  0.000000e+000 -2.024624e+000  1.249988e+001
      vertex  2.000000e+000 -2.024624e+000  1.249988e+001
      vertex  0.000000e+000 -4.695374e-001  1.197679e+001
    endloop
  endfacet
  facet normal  -0.000000e+000  3.188213e-001  9.478149e-001
    outer loop
      vertex  0.000000e+000 -4.695374e-001  1.197679e+001
      vertex  2.000000e+000 -2.024624e+000  1.249988e+001
      vertex  2.000000e+000 -4.695374e-001  1.197679e+001
    endloop
  endfacet
endsolid CATIA STL
